<?xml version="1.0" encoding="UTF-8"?>
<svg xmlns="http://www.w3.org/2000/svg" xmlns:xlink="http://www.w3.org/1999/xlink" version="1.1" id="Capa_1" x="0px" y="0px" viewBox="0 0 512 512" style="enable-background:new 0 0 512 512;" xml:space="preserve" width="512" height="512">
<g>
	<g>
		<path style="fill:#E8EDF2;" d="M373.974,49.522c-3.225,0-6.347-1.118-8.845-3.159C335.388,22.072,297.396,7.5,256,7.5&#10;&#9;&#9;&#9;s-79.388,14.572-109.129,38.864c-2.498,2.04-5.62,3.158-8.845,3.158H42.958c-7.18,0-13,5.82-13,13V491.5c0,7.18,5.82,13,13,13&#10;&#9;&#9;&#9;h426.083c7.18,0,13-5.82,13-13V62.522c0-7.18-5.82-13-13-13H373.974z"/>
		<path style="fill:#D9E7EC;" d="M469.042,49.522h-31.896c7.18,0,13,5.82,13,13V491.5c0,7.18-5.82,13-13,13h31.896&#10;&#9;&#9;&#9;c7.18,0,13-5.82,13-13V62.522C482.042,55.343,476.221,49.522,469.042,49.522z"/>
		<path style="fill:#FEE8C7;" d="M282.449,114.084v-11.73h-52.898v11.73c0,6.83-2.227,13.474-6.343,18.925l-2.875,3.808&#10;&#9;&#9;&#9;c-8.719,11.546-13.436,25.62-13.436,40.089v58.544c0,9.371,7.596,16.967,16.967,16.967h64.271c9.371,0,16.967-7.596,16.967-16.967&#10;&#9;&#9;&#9;v-58.544c0-14.468-4.717-28.542-13.436-40.089l-2.875-3.808C284.676,127.558,282.449,120.914,282.449,114.084z"/>
		<path style="fill:#528FD8;" d="M279.292,77.881h-46.584c-7.208,0-13.051,5.843-13.051,13.051v5.935&#10;&#9;&#9;&#9;c0,7.208,5.843,13.05,13.051,13.05h46.584c7.208,0,13.051-5.843,13.051-13.05v-5.935C292.343,83.725,286.5,77.881,279.292,77.881z&#10;&#9;&#9;&#9;"/>
	</g>
	<g>
		<g>
			<g>
				
					<polyline style="fill:none;stroke:#000000;stroke-width:15;stroke-linecap:round;stroke-linejoin:round;stroke-miterlimit:10;" points="&#10;&#9;&#9;&#9;&#9;&#9;183.171,403.306 159.031,403.306 159.031,462.866 &#9;&#9;&#9;&#9;"/>
				
					<line style="fill:none;stroke:#000000;stroke-width:15;stroke-linecap:round;stroke-linejoin:round;stroke-miterlimit:10;" x1="159.031" y1="432.522" x2="181.253" y2="432.522"/>
			</g>
			<g>
				
					<polyline style="fill:none;stroke:#000000;stroke-width:15;stroke-linecap:round;stroke-linejoin:round;stroke-miterlimit:10;" points="&#10;&#9;&#9;&#9;&#9;&#9;296.837,403.36 271.786,403.36 271.786,462.812 296.837,462.812 &#9;&#9;&#9;&#9;"/>
				
					<line style="fill:none;stroke:#000000;stroke-width:15;stroke-linecap:round;stroke-linejoin:round;stroke-miterlimit:10;" x1="294.99" y1="433.086" x2="271.786" y2="433.086"/>
			</g>
			<g>
				
					<polyline style="fill:none;stroke:#000000;stroke-width:15;stroke-linecap:round;stroke-linejoin:round;stroke-miterlimit:10;" points="&#10;&#9;&#9;&#9;&#9;&#9;352.969,403.36 327.918,403.36 327.918,462.812 352.969,462.812 &#9;&#9;&#9;&#9;"/>
				
					<line style="fill:none;stroke:#000000;stroke-width:15;stroke-linecap:round;stroke-linejoin:round;stroke-miterlimit:10;" x1="351.122" y1="433.086" x2="327.918" y2="433.086"/>
			</g>
			<g>
				
					<line style="fill:none;stroke:#000000;stroke-width:15;stroke-linecap:round;stroke-linejoin:round;stroke-miterlimit:10;" x1="217.11" y1="434.449" x2="242.314" y2="463.086"/>
				
					<line style="fill:none;stroke:#000000;stroke-width:15;stroke-linecap:round;stroke-linejoin:round;stroke-miterlimit:10;" x1="209.875" y1="403.086" x2="209.875" y2="463.086"/>
				<path style="fill:none;stroke:#000000;stroke-width:15;stroke-linecap:round;stroke-linejoin:round;stroke-miterlimit:10;" d="&#10;&#9;&#9;&#9;&#9;&#9;M242.314,418.679c0,8.612-7.551,15.593-16.476,15.593c-4.426,0-15.889,0.069-15.889,0.069v-31.255c0,0,10.659,0,15.889,0&#10;&#9;&#9;&#9;&#9;&#9;C234.763,403.086,242.314,410.067,242.314,418.679z"/>
			</g>
		</g>
		<path style="fill:none;stroke:#000000;stroke-width:15;stroke-linecap:round;stroke-linejoin:round;stroke-miterlimit:10;" d="&#10;&#9;&#9;&#9;M174.064,504.5h294.977c7.18,0,13-5.82,13-13V62.522c0-7.18-5.82-13-13-13h-95.068c-3.225,0-6.347-1.118-8.845-3.159&#10;&#9;&#9;&#9;c-5.921-4.836-12.168-9.286-18.704-13.314"/>
		<path style="fill:none;stroke:#000000;stroke-width:15;stroke-linecap:round;stroke-linejoin:round;stroke-miterlimit:10;" d="&#10;&#9;&#9;&#9;M314.999,17.846C296.591,11.151,276.722,7.5,256,7.5c-41.396,0-79.388,14.572-109.129,38.864c-2.498,2.04-5.62,3.158-8.845,3.158&#10;&#9;&#9;&#9;H42.958c-7.18,0-13,5.82-13,13V491.5c0,7.18,5.82,13,13,13h96.106"/>
		
			<line style="fill:none;stroke:#000000;stroke-width:15;stroke-linecap:round;stroke-linejoin:round;stroke-miterlimit:10;" x1="371.4" y1="225.14" x2="305.1" y2="186.86"/>
		
			<line style="fill:none;stroke:#000000;stroke-width:15;stroke-linecap:round;stroke-linejoin:round;stroke-miterlimit:10;" x1="219.76" y1="137.59" x2="140.6" y2="91.89"/>
		<g>
			<g>
				<path style="fill:none;stroke:#000000;stroke-width:15;stroke-linecap:round;stroke-linejoin:round;stroke-miterlimit:10;" d="&#10;&#9;&#9;&#9;&#9;&#9;M183.571,363.113l22.53-59.155c0.46-1.126,2.054-1.127,2.516-0.003l22.325,59.157"/>
				
					<line style="fill:none;stroke:#000000;stroke-width:15;stroke-linecap:round;stroke-linejoin:round;stroke-miterlimit:10;" x1="189.598" y1="352.38" x2="225.03" y2="352.38"/>
			</g>
			
				<line style="fill:none;stroke:#000000;stroke-width:15;stroke-linecap:round;stroke-linejoin:round;stroke-miterlimit:10;" x1="254.884" y1="303.113" x2="254.884" y2="363.113"/>
			<g>
				
					<line style="fill:none;stroke:#000000;stroke-width:15;stroke-linecap:round;stroke-linejoin:round;stroke-miterlimit:10;" x1="123.713" y1="304.06" x2="123.713" y2="361.279"/>
				<path style="fill:none;stroke:#000000;stroke-width:15;stroke-linecap:round;stroke-linejoin:round;stroke-miterlimit:10;" d="&#10;&#9;&#9;&#9;&#9;&#9;M163.716,333.113c0,16.043-8.904,28.738-23.031,28.984c-4.702,0.082-16.914,0.128-16.914,0.128V304c0,0,10.874,0,16.432,0&#10;&#9;&#9;&#9;&#9;&#9;C155.698,304,163.716,317.07,163.716,333.113z"/>
			</g>
			<g>
				
					<polyline style="fill:none;stroke:#000000;stroke-width:15;stroke-linecap:round;stroke-linejoin:round;stroke-miterlimit:10;" points="&#10;&#9;&#9;&#9;&#9;&#9;343.114,303.113 362.242,332.464 381.287,303.265 &#9;&#9;&#9;&#9;"/>
				
					<line style="fill:none;stroke:#000000;stroke-width:15;stroke-linecap:round;stroke-linejoin:round;stroke-miterlimit:10;" x1="362.242" y1="363.113" x2="362.242" y2="332.464"/>
			</g>
			<g>
				
					<line style="fill:none;stroke:#000000;stroke-width:15;stroke-linecap:round;stroke-linejoin:round;stroke-miterlimit:10;" x1="293.108" y1="334.476" x2="318.312" y2="363.113"/>
				
					<line style="fill:none;stroke:#000000;stroke-width:15;stroke-linecap:round;stroke-linejoin:round;stroke-miterlimit:10;" x1="285.873" y1="303.113" x2="285.873" y2="363.113"/>
				<path style="fill:none;stroke:#000000;stroke-width:15;stroke-linecap:round;stroke-linejoin:round;stroke-miterlimit:10;" d="&#10;&#9;&#9;&#9;&#9;&#9;M318.312,318.706c0,8.612-7.551,15.593-16.476,15.593c-4.426,0-15.889,0.069-15.889,0.069v-31.255c0,0,10.659,0,15.889,0&#10;&#9;&#9;&#9;&#9;&#9;C310.761,303.113,318.312,310.094,318.312,318.706z"/>
			</g>
		</g>
		<path style="fill:none;stroke:#000000;stroke-width:15;stroke-linecap:round;stroke-linejoin:round;stroke-miterlimit:10;" d="&#10;&#9;&#9;&#9;M282.45,109.54v4.54c0,6.83,2.23,13.48,6.34,18.93l2.88,3.81c8.72,11.54,13.43,25.62,13.43,40.08v58.55&#10;&#9;&#9;&#9;c0,9.37-7.59,16.97-16.96,16.97h-64.28c-9.37,0-16.96-7.6-16.96-16.97V176.9c0-14.46,4.71-28.54,13.43-40.08l2.88-3.81&#10;&#9;&#9;&#9;c4.11-5.45,6.34-12.1,6.34-18.93v-4.54"/>
		<path style="fill:none;stroke:#000000;stroke-width:15;stroke-linecap:round;stroke-linejoin:round;stroke-miterlimit:10;" d="&#10;&#9;&#9;&#9;M279.292,77.881h-46.584c-7.208,0-13.051,5.843-13.051,13.051v5.935c0,7.208,5.843,13.05,13.051,13.05h46.584&#10;&#9;&#9;&#9;c7.208,0,13.051-5.843,13.051-13.05v-5.935C292.343,83.725,286.5,77.881,279.292,77.881z"/>
	</g>
</g>















</svg>
