<svg id="Capa_1" enable-background="new 0 0 512 512" height="512" viewBox="0 0 512 512" width="512" xmlns="http://www.w3.org/2000/svg"><g><path d="m512 256c0 141.385-114.615 256-256 256-68.341 0-130.427-26.779-176.338-70.417-.577-.548.803-3.136.232-3.69-2.393-2.317-4.741-4.681-7.042-7.089-.685-.717-3.32.599-3.997-.125-42.714-45.742-68.855-107.158-68.855-174.679 0-141.385 114.615-256 256-256s256 114.615 256 256z" fill="#00915d"/><path d="m473.536 264.036c0 113.068-91.66 204.727-204.727 204.727s-204.727-91.659-204.727-204.727 91.659-204.727 204.727-204.727 204.727 91.66 204.727 204.727z" fill="#00a86d"/><path d="m342.25 156.273c-1.344.11-2.734-.14-4.023-.8-3.687-1.886-5.147-6.405-3.26-10.093l60.994-106.445c1.886-3.687 6.406-5.147 10.093-3.26 3.687 1.886 5.147 6.405 3.26 10.093l-60.994 106.445c-1.227 2.398-3.568 3.854-6.07 4.06zm60.737-5.517 44-71c2.182-3.521 1.097-8.145-2.424-10.326s-8.145-1.097-10.326 2.424l-44 71c-2.182 3.521-1.097 8.145 2.424 10.326 1.23.763 2.596 1.126 3.944 1.126 2.51 0 4.963-1.259 6.382-3.55z" fill="#ffc143"/><path d="m257.522 87.866c.501 4.112-2.427 7.851-6.538 8.352-.308.037-.614.056-.917.056-3.737 0-6.972-2.79-7.436-6.594l-7.342-60.272c-.396-3.258 1.371-6.396 4.364-7.745 2.99-1.348 6.515-.594 8.691 1.861l33.572 37.848-4.883-37.092c-.541-4.107 2.35-7.874 6.457-8.415 4.107-.539 7.873 2.35 8.414 6.457l7.673 58.281c.5 4.093-1.38 7.684-4.781 9.22-3.333 1.504-7.15.604-9.729-2.296l-31.977-36.051zm-160.947 125.352c-3.887-1.44-8.201.54-9.641 4.422-1.646 4.435-3.418 9.185-4.813 12.891l-49.893-18.831c-3.872-1.463-8.203.493-9.665 4.368-1.463 3.875.493 8.203 4.368 9.665l56.864 21.463c.867.328 1.763.484 2.646.484 2.596 0 5.088-1.353 6.469-3.702.409-.698.681-1.159 8.087-21.119 1.441-3.883-.539-8.199-4.422-9.641zm120.475-123.424-17.005 5.584-4.722-14.383 15.225-4.999c3.936-1.292 6.078-5.53 4.786-9.465s-5.526-6.078-9.466-4.786l-15.225 4.999-4.722-14.382 17.004-5.584c3.936-1.292 6.078-5.53 4.786-9.466s-5.532-6.077-9.466-4.786l-24.13 7.924c-3.936 1.292-6.078 5.53-4.786 9.465l9.39 28.599c.004.011.007.023.011.035.005.015.01.029.015.044l9.388 28.59c.621 1.89 1.967 3.456 3.742 4.354 1.059.535 2.219.807 3.384.807.788 0 1.577-.124 2.34-.374l24.131-7.923c3.936-1.292 6.078-5.53 4.786-9.465s-5.528-6.08-9.466-4.788zm-134.12 180.746c-6.302-6.006-15.347-9.761-25.469-10.572-1.981-.16-3.946.477-5.462 1.766-1.514 1.29-2.454 3.128-2.612 5.111l-1.453 18.139c-.331 4.129 2.748 7.745 6.877 8.075 4.13.328 7.743-2.749 8.074-6.877l.789-9.84c3.538 1.127 6.587 2.844 8.907 5.056 3.793 3.615 5.484 8.342 5.027 14.048-.489 6.102-3.325 11.647-7.985 15.616s-10.588 5.885-16.688 5.396c-6.101-.489-11.646-3.325-15.615-7.984-3.969-4.66-5.885-10.587-5.396-16.688.367-4.578 2.068-8.885 4.92-12.454 2.586-3.236 2.059-7.956-1.178-10.541-3.235-2.586-7.955-2.058-10.541 1.178-4.727 5.916-7.546 13.046-8.152 20.619-.81 10.095 2.361 19.901 8.928 27.611s15.742 12.402 25.838 13.211c1.033.083 2.064.124 3.09.124 8.991 0 17.601-3.158 24.521-9.052 7.711-6.566 12.402-15.743 13.211-25.838.812-10.14-2.609-19.411-9.631-26.104zm37.424-126.835-33.863-24.531c-3.355-2.43-8.044-1.681-10.474 1.674-2.43 3.354-1.68 8.043 1.674 10.473l33.864 24.531c2.384 1.727 4.972 4.631 3.808 11.819-.359 2.22-1.242 4.273-2.697 6.276-1.59 2.189-3.506 3.704-5.857 4.63-5.57 2.195-8.514 1.342-11.216-.616l-33.899-24.557c-3.355-2.43-8.044-1.681-10.474 1.674-2.43 3.354-1.68 8.043 1.674 10.473l33.9 24.557c5.531 4.007 11.721 5.475 18.471 4.396 2.285-.365 4.635-1.023 7.044-1.972 5.017-1.976 9.22-5.263 12.495-9.77 2.829-3.895 4.635-8.167 5.368-12.697 2.303-14.241-4.068-22.195-9.818-26.36zm11.591-58.769 6.622-6.622c2.929-2.929 2.929-7.677 0-10.606-2.93-2.929-7.678-2.929-10.607 0l-23.755 23.755c-2.929 2.929-2.929 7.677 0 10.606 1.465 1.465 3.385 2.197 5.304 2.197s3.839-.732 5.304-2.197l6.526-6.526 37.71 37.71c1.465 1.465 3.385 2.197 5.304 2.197s3.839-.732 5.304-2.197c2.929-2.929 2.929-7.677 0-10.606zm184.365 355.641-13.826 5.894-5.733-13.449 15.615-6.656c3.81-1.625 5.582-6.03 3.958-9.84s-6.025-5.583-9.841-3.958l-22.515 9.597c-1.829.78-3.274 2.255-4.017 4.101-.742 1.845-.722 3.91.059 5.74l23.681 55.549c1.216 2.851 3.987 4.561 6.903 4.561.98 0 1.978-.194 2.938-.603 3.811-1.625 5.582-6.03 3.958-9.84l-9.123-21.401 13.826-5.894c3.81-1.625 5.582-6.03 3.958-9.84-1.625-3.812-6.027-5.585-9.841-3.961zm135.069-66.413c-3.421-2.34-8.087-1.461-10.425 1.958l-10.102 14.774-12.496-8.544 9.045-13.229c2.338-3.419 1.461-8.086-1.958-10.424-3.42-2.338-8.087-1.461-10.425 1.958l-9.045 13.228-12.496-8.545 10.103-14.774c2.338-3.419 1.461-8.086-1.958-10.424-3.421-2.34-8.087-1.461-10.425 1.958l-14.335 20.965c-2.338 3.419-1.461 8.086 1.958 10.424l49.756 34.022c1.256.859 2.733 1.309 4.233 1.309.461 0 .925-.042 1.385-.129 1.955-.367 3.684-1.496 4.807-3.138l14.335-20.965c2.339-3.42 1.462-8.087-1.957-10.424zm33.989-49.708c-3.421-2.338-8.087-1.461-10.425 1.958l-10.103 14.774-12.495-8.544 9.045-13.229c2.338-3.419 1.461-8.086-1.958-10.424-3.421-2.339-8.087-1.461-10.425 1.958l-9.045 13.228-12.495-8.544 10.103-14.774c2.338-3.419 1.461-8.086-1.958-10.424-3.42-2.339-8.086-1.461-10.425 1.958l-14.336 20.965c-1.122 1.642-1.547 3.663-1.18 5.618s1.496 3.684 3.138 4.807l49.756 34.022c1.295.885 2.769 1.31 4.227 1.31 2.394 0 4.745-1.143 6.198-3.267l14.336-20.965c2.338-3.422 1.461-8.089-1.958-10.427zm-78.307 109.426c-.678 3.603-3.826 6.116-7.362 6.116-.46 0-.926-.042-1.395-.13l-29.391-5.524 10.771 13.785c2.55 3.264 1.972 7.977-1.292 10.527-1.371 1.071-2.998 1.591-4.613 1.591-2.229 0-4.436-.99-5.915-2.883l-37.454-47.933c-2.55-3.264-1.972-7.977 1.292-10.527.003-.002.005-.004.008-.006.002-.002.005-.004.008-.006l12.737-9.953c10.516-8.217 25.51-6.664 33.425 3.465 3.876 4.961 5.467 11.221 4.478 17.625-.607 3.927-2.14 7.595-4.445 10.745l23.163 4.354c4.07.763 6.749 4.683 5.985 8.754zm-41.001-32.244c-2.773-3.549-8.437-3.953-12.369-.88l-6.809 5.321c2.004 2.55 4.116 5.24 5.13 6.537 1.191 1.525 3.24 4.124 5.157 6.552 2.489-1.965 5.174-4.08 6.755-5.315 1.926-1.505 3.241-3.734 3.609-6.115.351-2.27-.173-4.435-1.473-6.1z" fill="#fff"/><path d="m402.759 157.322c-14.298 25.078-39.4 40.138-66.11 42.664-11.432-24.272-11.257-53.544 3.041-78.622s39.399-40.138 66.11-42.664c11.43 24.272 11.256 53.544-3.041 78.622z" fill="#fff261"/><path d="m456.301 17.196-46.085 72.943c6.632 21.677 4.658 45.936-7.457 67.183-12.514 21.949-33.304 36.224-56.206 41.138-2.878-21.413.987-43.907 12.514-64.125 7.125-12.496 27.346-34.575 28.332-36.167l56.152-88.875c2.182-3.521 6.806-4.605 10.326-2.424s4.605 6.805 2.424 10.327z" fill="#fff587"/><path d="m372.349 65.729-51.313 58.6c12.72 17.478 18.841 39.771 15.374 62.836-4.291 28.546-22.271 51.647-46.272 63.636-19.416-18.515-29.812-45.88-25.521-74.427 2.883-19.183 11.949-35.907 24.869-48.453 6.306-6.123 55.293-53.476 55.293-53.476l16.286-18.598c2.729-3.115 7.467-3.431 10.583-.701 3.116 2.728 3.43 7.466.701 10.583z" fill="#ffb509"/><path d="m317.936 228.682c-12.692-17.469-18.796-39.74-15.333-62.78 2.381-15.838 8.975-29.999 18.474-41.517 12.692 17.469 18.796 39.74 15.333 62.78-2.381 15.838-8.975 29.999-18.474 41.517z" fill="#ffc143"/><path d="m431.164 192.235c-4.262 26.489-20.928 50.555-46.885 63.187s-55.178 10.897-78.653-2.093c4.262-26.489 20.928-50.555 46.885-63.187s55.179-10.897 78.653 2.093z" fill="#ffc143"/><path d="m296.812 242.319c-4.291 28.547-22.271 51.647-46.272 63.636-19.416-18.515-29.812-45.88-25.521-74.427s22.271-51.647 46.272-63.636c19.416 18.515 29.812 45.88 25.521 74.427z" fill="#fff261"/><path d="m277.508 284.828c-12.896-17.53-19.124-39.97-15.634-63.191 2.449-16.296 9.36-30.816 19.304-42.509 12.896 17.53 19.124 39.97 15.634 63.191-2.449 16.296-9.36 30.816-19.304 42.509z" fill="#fff587"/><path d="m458.512 121.162-10.399 27.384s-21.176 60.827-24.688 67.956c-8.073 16.383-21.45 30.308-39.144 38.919-25.957 12.632-55.178 10.897-78.653-2.093 1.783-11.084 5.739-21.743 11.638-31.318 20.641 7.148 44.01 6.412 65.203-3.901 15.095-7.346 35.27-31.861 35.281-31.857l26.74-70.414c1.471-3.874 5.807-5.819 9.674-4.35 3.871 1.471 5.818 5.802 4.348 9.674z" fill="#ffb509"/><path d="m389.111 263.632c-8.232 25.535-28.357 46.793-55.93 55.34s-56.193 2.397-77.425-14.004c8.232-25.535 28.357-46.794 55.93-55.34 27.573-8.547 56.193-2.398 77.425 14.004z" fill="#fff587"/><path d="m376.058 255.316c-10.396 13.834-25.086 24.642-42.877 30.157-22.254 6.898-45.189 4.223-64.372-5.689 10.396-13.834 25.085-24.642 42.877-30.157 22.254-6.898 45.189-4.222 64.372 5.689z" fill="#fff69a"/><path d="m340.682 323.058c-10.634 24.632-32.697 43.871-60.96 49.745s-56.165-2.981-75.733-21.336c.323-.749.657-1.493 1.002-2.231-2.057.988-4.155 1.894-6.289 2.716-17.559-20.285-25.293-48.519-18.295-76.525s27.103-49.283 52.14-58.925c17.559 20.285 25.293 48.518 18.295 76.524-1.335 5.343-3.147 10.44-5.38 15.259 6.077-2.905 12.598-5.131 19.488-6.563 28.262-5.874 56.164 2.981 75.732 21.336z" fill="#ffc143"/><path d="m340.682 323.058c-10.634 24.632-32.697 43.871-60.96 49.745s-56.165-2.981-75.733-21.336c.323-.749.658-1.493 1.002-2.231-2.057.988-4.155 1.895-6.289 2.716-17.559-20.285-25.293-48.519-18.295-76.525s27.103-49.283 52.14-58.925c3.012 3.479 5.734 7.193 8.143 11.099-10.629 10.579-18.602 24.099-22.503 39.709-4.887 19.558-2.589 39.226 5.221 56.221.478-.457.961-.909 1.45-1.356 19.062 14.865 44.287 21.57 69.808 16.266 15.523-3.226 29.175-10.484 40.091-20.452 2.048 1.597 4.026 3.288 5.925 5.069z" fill="#ffb509"/><path d="m205.919 339.073c-7.153 24.317-25.562 42.257-47.876 49.809-14.671-18.432-20.434-43.482-13.281-67.799s25.562-42.257 47.876-49.81c14.671 18.433 20.434 43.483 13.281 67.8z" fill="#fff261"/><path d="m279.409 367.259c-10.221 21.225-30.274 37.305-55.283 41.436-25.009 4.13-49.167-4.648-65.67-21.46 3.887-8.073 9.197-15.401 15.661-21.611-4.606-13.945-5.165-29.385-.707-44.54 4.705-15.996 14.281-29.232 26.635-38.567 8.994 16.739 11.66 36.887 5.874 56.557-.967 3.288-2.141 6.459-3.501 9.504 3.641-1.2 7.421-2.135 11.321-2.779 25.009-4.131 49.167 4.648 65.67 21.46z" fill="#fff587"/><path d="m268.766 358.26c-11.058 12.914-26.552 22.152-44.639 25.139-20.06 3.313-39.573-1.68-55.027-12.462 11.058-12.914 26.552-22.152 44.639-25.139 20.06-3.312 39.573 1.681 55.027 12.462z" fill="#fff69a"/><path d="m381.134 138.97c-25.864 55.468-71.628 117.535-128.86 174.768-56.493 56.493-117.694 101.81-172.611 127.845-3.71-3.526-7.314-7.163-10.808-10.904.637-.683 1.413-1.257 2.312-1.676 111.452-51.968 244.404-184.92 296.372-296.372 1.751-3.754 6.216-5.377 9.968-3.628 3.753 1.75 5.377 6.213 3.627 9.967z" fill="#ffb509"/></g></svg>