<svg height="512" viewBox="0 0 64 64" width="512" xmlns="http://www.w3.org/2000/svg"><g id="Artboard_18" data-name="Artboard 18"><circle cx="32" cy="32" fill="#5490f5" r="30"/><circle cx="32" cy="32" fill="#eaebef" r="27"/><path d="m7.729 28a2 2 0 0 1 -1.943-2.48 26.951 26.951 0 0 1 26.214-20.52 2 2 0 0 1 0 4 22.959 22.959 0 0 0 -22.331 17.48 2 2 0 0 1 -1.94 1.52z" fill="#fff"/><path d="m32 24-8 4.001 8 5 8-4z" fill="#adcafa"/><path d="m32 42.001-8-5v-9l8 5z" fill="#5490f5"/><path d="m40 29.001v9l-8 4v-9z" fill="#76a6f7"/><g fill="#5490f5"><path d="m20 18a3 3 0 0 0 -3-3 1 1 0 1 1 1-1h2a3 3 0 1 0 -3 3 1 1 0 1 1 -1 1h-2a3 3 0 0 0 6 0z"/><path d="m27 18v-7h-2v7a1 1 0 0 1 -2 0v-7h-2v7a3 3 0 0 0 6 0z"/><path d="m41 19v2h2v-7a3 3 0 0 0 -6 0v7h2v-2zm-1-6a1 1 0 0 1 1 1v3h-2v-3a1 1 0 0 1 1-1z"/><path d="m48.808 16.379a2.99 2.99 0 0 0 -1.808-5.379h-2a1 1 0 0 0 -1 1v9h2v-4h.882l1.118 2.236v1.764h2v-2a1 1 0 0 0 -.1-.447zm-2.808-3.379h1a1 1 0 0 1 0 2h-1z"/><path d="m19 46v9h2v-4h3v-2h-3v-2h3v-2h-4a1 1 0 0 0 -1 1z"/><path d="m32 48a3 3 0 0 0 -3-3h-2a1 1 0 0 0 -1 1v9h2v-4h.882l1.118 2.236v1.764h2v-2a1 1 0 0 0 -.105-.447l-1.087-2.174a2.99 2.99 0 0 0 1.192-2.379zm-4-1h1a1 1 0 0 1 0 2h-1z"/><path d="m34 46v8a1 1 0 0 0 1 1h4v-2h-3v-2h3v-2h-3v-2h3v-2h-4a1 1 0 0 0 -1 1z"/><path d="m41 46v8a1 1 0 0 0 1 1h4v-2h-3v-2h3v-2h-3v-2h3v-2h-4a1 1 0 0 0 -1 1z"/><path d="m36 17v-1a1 1 0 0 0 -1-1h-3v2h2a2 2 0 0 1 -4 0v-2.592a1.409 1.409 0 0 1 1.407-1.408h3.593v-2h-3.593a3.411 3.411 0 0 0 -3.407 3.408v2.592a4 4 0 0 0 8 0z"/></g><path d="m8 41.008a2 2 0 0 1 -1.919-1.438 26.883 26.883 0 0 1 -1.081-7.57 2 2 0 0 1 4 0 22.962 22.962 0 0 0 .919 6.446 2 2 0 0 1 -1.919 2.562z" fill="#fff"/></g><g id="BG"><path d="m32 1a31 31 0 1 0 31 31 31.035 31.035 0 0 0 -31-31zm0 60a29 29 0 1 1 29-29 29.034 29.034 0 0 1 -29 29z"/><path d="m41 29a1 1 0 0 0 -.465-.848l-8-5a1 1 0 0 0 -.977-.047l-8 4a1 1 0 0 0 -.552.848v.047 9a1 1 0 0 0 .47.848l8 5a1 1 0 0 0 .977.047l8-4a1 1 0 0 0 .547-.895zm-9.055-3.855 6.013 3.755-5.9 2.952-6.016-3.752zm-6.945 4.66 6 3.75v6.645l-6-3.75zm8 10.578v-6.764l6-3v6.764z"/><path d="m20 18a3 3 0 0 0 -3-3 1 1 0 1 1 1-1h2a3 3 0 1 0 -3 3 1 1 0 1 1 -1 1h-2a3 3 0 0 0 6 0z"/><path d="m24 21a3 3 0 0 0 3-3v-7h-2v7a1 1 0 0 1 -2 0v-7h-2v7a3 3 0 0 0 3 3z"/><path d="m39 19h2v2h2v-7a3 3 0 0 0 -6 0v7h2zm1-6a1 1 0 0 1 1 1v3h-2v-3a1 1 0 0 1 1-1z"/><path d="m50 14a3 3 0 0 0 -3-3h-2a1 1 0 0 0 -1 1v9h2v-4h.882l1.118 2.236v1.764h2v-2a1 1 0 0 0 -.1-.447l-1.087-2.174a2.99 2.99 0 0 0 1.187-2.379zm-4-1h1a1 1 0 0 1 0 2h-1z"/><path d="m19 46v9h2v-4h3v-2h-3v-2h3v-2h-4a1 1 0 0 0 -1 1z"/><path d="m32 48a3 3 0 0 0 -3-3h-2a1 1 0 0 0 -1 1v9h2v-4h.882l1.118 2.236v1.764h2v-2a1 1 0 0 0 -.105-.447l-1.088-2.174a2.988 2.988 0 0 0 1.193-2.379zm-4-1h1a1 1 0 0 1 0 2h-1z"/><path d="m34 46v8a1 1 0 0 0 1 1h4v-2h-3v-2h3v-2h-3v-2h3v-2h-4a1 1 0 0 0 -1 1z"/><path d="m41 46v8a1 1 0 0 0 1 1h4v-2h-3v-2h3v-2h-3v-2h3v-2h-4a1 1 0 0 0 -1 1z"/><path d="m32 21a4 4 0 0 0 4-4v-1a1 1 0 0 0 -1-1h-3v2h2a2 2 0 0 1 -4 0v-2.592a1.409 1.409 0 0 1 1.407-1.408h3.593v-2h-3.593a3.411 3.411 0 0 0 -3.407 3.408v2.592a4 4 0 0 0 4 4z"/></g></svg>