<svg id="Layer_1" enable-background="new 0 0 80 80" viewBox="0 0 80 80" xmlns="http://www.w3.org/2000/svg"><g><circle cx="40" cy="40" fill="#f67656" r="40"/><g><g><g fill="#fff"><path d="m19 55h38c1.7 0 3-1.3 3-3v-28c0-1.7-1.3-3-3-3h-38c-1.7 0-3 1.3-3 3v28c0 1.7 1.3 3 3 3z"/><path d="m29 55h-7v7z"/></g><g fill="#3f4a5a"><g><path d="m22 31h21v2h-21z"/><path d="m22 35h21v2h-21z"/><path d="m22 39h32v2h-32z"/><path d="m22 43h32v2h-32z"/><path d="m22 47h21v2h-21z"/></g><g><path d="m22 27h2v2h-2z"/><path d="m26 27h2v2h-2z"/><path d="m30 27h2v2h-2z"/></g></g></g><g><path d="m58 18-13 13v6h6l13-13z" fill="#6bc7d9"/><path d="m57 19.8h2v8.5h-2z" fill="#3f4a5a" transform="matrix(.707 -.707 .707 .707 .017 48.042)"/></g></g></g></svg>