<svg id="p" height="512" viewBox="0 0 48 48" width="512" xmlns="http://www.w3.org/2000/svg"><path d="m39 30h1c1.66 0 3-1.34 3-3v-2c0-.77-.29-1.47-.76-2 .48-.53.76-1.23.76-2v-2c0-.77-.29-1.47-.76-2 .48-.53.76-1.23.76-2v-2c0-1.66-1.34-3-3-3h-1v-2c0-2.21-1.79-4-4-4h-27c-.8 0-1.56.32-2.12.88s-.88 1.33-.88 2.12v34c0 .8.32 1.56.88 2.12s1.33.88 2.12.88h27c2.21 0 4-1.79 4-4zm-30-24v36h-1c-.27 0-.52-.11-.71-.29-.19-.19-.29-.44-.29-.71v-34c0-.27.11-.52.29-.71.19-.19.44-.29.71-.29zm2 0h24c1.1 0 2 .9 2 2v32c0 1.1-.9 2-2 2h-24zm9 33h8c.55 0 1-.45 1-1s-.45-1-1-1h-8c-.55 0-1 .45-1 1s.45 1 1 1zm-.71-18.1c-1.51-.08-4.36.26-5.26 3.86-.14.56-.02 1.39.31 2.28.47 1.26 1.31 2.68 1.66 3.25v1.71c0 1.66 1.34 3 3 3h10c1.66 0 3-1.34 3-3v-1.71c.35-.57 1.19-1.99 1.66-3.25.33-.89.45-1.72.31-2.28-.9-3.6-3.75-3.94-5.26-3.86-.19-.54-.49-1.06-.92-1.52-.75-.78-1.93-1.38-3.79-1.38s-3.03.6-3.79 1.38c-.44.45-.73.98-.92 1.52zm10.71 10.1h-12v1c0 .55.45 1 1 1h10c.55 0 1-.45 1-1zm-.94-8.11c.02.77-.08 1.31-.08 1.31-.11.54-.63.89-1.18.78-.54-.11-.89-.63-.78-1.18 0 0 .42-1.9-.67-3.03-.46-.48-1.21-.78-2.35-.78s-1.89.3-2.35.78c-1.09 1.13-.67 3.03-.67 3.03.11.54-.24 1.07-.78 1.18s-1.07-.24-1.18-.78c0 0-.1-.54-.08-1.31-.95 0-2.46.34-2.97 2.36-.04.15.02.34.07.56.09.36.25.75.42 1.15.36.8.8 1.58 1.09 2.05h2.06l-.56-1.68c-.18-.52.11-1.09.63-1.26.52-.18 1.09.11 1.26.63l.77 2.32h1.28v-3c0-.55.45-1 1-1s1 .45 1 1v3h1.28l.77-2.32c.17-.52.74-.81 1.26-.63.52.17.81.74.63 1.26l-.56 1.68h2.06c.28-.47.73-1.26 1.09-2.05.18-.39.33-.79.42-1.15.06-.22.11-.41.07-.56-.5-2.02-2.01-2.35-2.97-2.36zm10.94 1.11c.55 0 1 .45 1 1v2c0 .55-.45 1-1 1h-1v-4zm0-2h-1v-4h1c.55 0 1 .45 1 1v2c0 .55-.45 1-1 1zm1-9v2c0 .55-.45 1-1 1h-1v-4h1c.55 0 1 .45 1 1zm-7-3c0-.55-.45-1-1-1h-18c-.55 0-1 .45-1 1v5c0 .55.45 1 1 1h18c.55 0 1-.45 1-1zm-2 1v3h-16v-3z" fill-rule="evenodd"/></svg>