<svg id="Capa_1" enable-background="new 0 0 512 512" height="512" viewBox="0 0 512 512" width="512" xmlns="http://www.w3.org/2000/svg"><path d="m445 93-120-90c-2.607-1.953-5.828-3-9-3h-150c-8.284 0-15 6.716-15 15v105h-75c-8.284 0-15 6.716-15 15v362c0 8.284 6.716 15 15 15h270c8.284 0 15-6.716 15-15v-106h75c8.284 0 15-6.716 15-15v-270.898c0-4.434-1.983-9.089-6-12.102zm-114-48 60 45h-60zm0 437h-240v-332h120v75c0 8.284 6.716 15 15 15h105zm-90-317 60 45h-60zm120 196c0-38.953 0-97.394 0-136 0-4.816-2.37-9.278-6-12l-120-90c-2.473-1.853-5.692-3-9-3h-45v-90h120v75c0 8.284 6.716 15 15 15h105v241z"/></svg>