<svg enable-background="new 0 0 512 512" height="512" viewBox="0 0 512 512" width="512" xmlns="http://www.w3.org/2000/svg"><g id="_x32_3_Diary"><g id="XMLID_1961_"><g id="XMLID_1986_"><g id="XMLID_2180_"><g id="XMLID_1963_"><g id="XMLID_1997_"><path id="XMLID_39_" d="m166 11h290v490h-290z" fill="#f7f9fd"/></g></g><g id="XMLID_2188_"><g id="XMLID_1996_"><path id="XMLID_40_" d="m86 431v-60-60-60-60-60-60-60h80v490h-80z" fill="#5c7199"/></g></g><g id="XMLID_2187_"><g id="XMLID_1995_"><path id="XMLID_41_" d="m206 341h210v80h-210z" fill="#81ddfc"/></g></g><g id="XMLID_2186_"><g id="XMLID_1962_"><path id="XMLID_42_" d="m383.54 114.27c16.69 16.69 16.69 43.75 0 60.43l-75.54 75.55-75.54-75.55c-8.34-8.34-12.52-19.28-12.52-30.21 0-10.94 4.18-21.87 12.52-30.22 16.69-16.69 43.74-16.69 60.43 0l15.11 15.11 15.11-15.11c16.69-16.69 43.74-16.69 60.43 0z" fill="#ff7459"/></g></g></g><g id="XMLID_2167_"><g id="XMLID_2179_"><g id="XMLID_1992_"><path id="XMLID_43_" d="m456 511h-370c-5.522 0-10-4.478-10-10v-490c0-5.523 4.478-10 10-10h370c5.522 0 10 4.477 10 10v490c0 5.522-4.478 10-10 10zm-360-20h350v-470h-350z"/></g></g><g id="XMLID_2178_"><g id="XMLID_1991_"><path id="XMLID_44_" d="m126 81h-70c-5.522 0-10-4.477-10-10s4.478-10 10-10h70c5.523 0 10 4.477 10 10s-4.477 10-10 10z"/></g></g><g id="XMLID_2176_"><g id="XMLID_1990_"><path id="XMLID_45_" d="m126 141h-70c-5.522 0-10-4.477-10-10s4.478-10 10-10h70c5.523 0 10 4.477 10 10s-4.477 10-10 10z"/></g></g><g id="XMLID_2175_"><g id="XMLID_1989_"><path id="XMLID_46_" d="m126 201h-70c-5.522 0-10-4.477-10-10s4.478-10 10-10h70c5.523 0 10 4.477 10 10s-4.477 10-10 10z"/></g></g><g id="XMLID_2174_"><g id="XMLID_1988_"><path id="XMLID_47_" d="m126 261h-70c-5.522 0-10-4.477-10-10s4.478-10 10-10h70c5.523 0 10 4.477 10 10s-4.477 10-10 10z"/></g></g><g id="XMLID_2173_"><g id="XMLID_1987_"><path id="XMLID_48_" d="m126 321h-70c-5.522 0-10-4.478-10-10s4.478-10 10-10h70c5.523 0 10 4.478 10 10s-4.477 10-10 10z"/></g></g><g id="XMLID_2172_"><g id="XMLID_1972_"><path id="XMLID_49_" d="m126 381h-70c-5.522 0-10-4.478-10-10s4.478-10 10-10h70c5.523 0 10 4.478 10 10s-4.477 10-10 10z"/></g></g><g id="XMLID_2171_"><g id="XMLID_1971_"><path id="XMLID_50_" d="m126 441h-70c-5.522 0-10-4.478-10-10s4.478-10 10-10h70c5.523 0 10 4.478 10 10s-4.477 10-10 10z"/></g></g><g id="XMLID_2170_"><g id="XMLID_1970_"><path id="XMLID_51_" d="m166 511c-5.523 0-10-4.478-10-10v-490c0-5.523 4.477-10 10-10s10 4.477 10 10v490c0 5.522-4.477 10-10 10z"/></g></g><g id="XMLID_2169_"><g id="XMLID_1967_"><path id="XMLID_52_" d="m416 431h-210c-5.523 0-10-4.478-10-10v-80c0-5.522 4.477-10 10-10h210c5.522 0 10 4.478 10 10v80c0 5.522-4.478 10-10 10zm-200-20h190v-60h-190z"/></g></g><g id="XMLID_2168_"><g id="XMLID_1964_"><path id="XMLID_53_" d="m308 260.25c-2.652 0-5.196-1.054-7.071-2.93l-75.54-75.549c-9.962-9.962-15.448-23.203-15.448-37.281 0-14.073 5.484-27.315 15.444-37.287 9.965-9.965 23.207-15.451 37.29-15.451 14.084 0 27.325 5.486 37.286 15.447l8.039 8.039 8.039-8.039c9.961-9.96 23.202-15.446 37.286-15.446 14.083 0 27.325 5.486 37.286 15.446 9.961 9.961 15.446 23.204 15.446 37.29 0 14.087-5.486 27.329-15.448 37.285l-75.538 75.547c-1.875 1.875-4.419 2.929-7.071 2.929zm-45.325-148.498c-8.741 0-16.96 3.405-23.144 9.589-6.184 6.19-9.591 14.413-9.591 23.149s3.406 16.954 9.591 23.139l68.469 68.478 68.469-68.478c6.184-6.181 9.589-14.398 9.589-23.141 0-8.744-3.405-16.964-9.589-23.147-6.184-6.184-14.402-9.589-23.144-9.589-8.741 0-16.961 3.405-23.144 9.588l-15.11 15.11c-3.906 3.905-10.236 3.905-14.143 0l-15.11-15.11c-6.182-6.182-14.402-9.588-23.143-9.588z"/></g></g></g></g></g></g></svg>