<svg height="512" viewBox="0 0 64 64" width="512" xmlns="http://www.w3.org/2000/svg"><g id="food_delivery_hand_shipping_shopping" data-name="food, delivery, hand, shipping, shopping"><path d="m30.942 51 11.926 3.2a3 3 0 0 0 3.674-2.121 3 3 0 0 0 -2.121-3.679l-14.92-4a6 6 0 0 0 -3.008-.025l-6.493 1.625v12l2.733 1.367a6.007 6.007 0 0 0 2.683.633h14.977a5.993 5.993 0 0 0 3-.8l16.8-9.7a3 3 0 0 0 -3-5.2l-10.673 6.16" fill="#ffbcab"/><path d="m17 29a2 2 0 0 0 0 4h42a2 2 0 0 0 0-4z" fill="#ffa733"/><path d="m12 43h8v18h-8z" fill="#006df0"/><path d="m4 45h8v14h-8z" fill="#57a4ff"/><path d="m20 39h36l2-6h-40z" fill="#ffc477"/><path d="m57.667 34 .333-1h-40l.333 1z" fill="#ffb655"/><path d="m38 9a20 20 0 0 0 -20 20h40a20 20 0 0 0 -20-20z" fill="#ffc477"/><circle cx="38" cy="6" fill="#ff9811" r="3"/><path d="m10 45h2v14h-2z" fill="#2488ff"/><path d="m50 13.027v6.973a8 8 0 0 1 -8 8h-23.95c-.016.333-.05.662-.05 1h40a19.948 19.948 0 0 0 -8-15.973z" fill="#ffb655"/><g fill="#231f20"><path d="m59 28h-.05a21.006 21.006 0 0 0 -17.67-19.72 4 4 0 1 0 -6.56 0 21.006 21.006 0 0 0 -17.67 19.72h-.05a3 3 0 0 0 0 6h.28l1.77 5.32a1.014 1.014 0 0 0 .95.68h36a1.014 1.014 0 0 0 .95-.68l1.77-5.32h.28a3 3 0 0 0 0-6zm-21-24a2 2 0 1 1 -2 2 2.006 2.006 0 0 1 2-2zm0 6a19.023 19.023 0 0 1 18.97 18h-37.94a19.023 19.023 0 0 1 18.97-18zm17.28 28h-34.56l-1.33-4h37.22zm3.72-6h-42a1 1 0 0 1 0-2h42a1 1 0 0 1 0 2z"/><path d="m62.15 44.9a4.007 4.007 0 0 0 -5.46-1.47l-9.75 5.63a3.982 3.982 0 0 0 -2.26-1.63l-14.92-3.99a6.958 6.958 0 0 0 -3.51-.03l-5.25 1.31v-1.72a1 1 0 0 0 -1-1h-8a1 1 0 0 0 -1 1v1h-7a1 1 0 0 0 -1 1v14a1 1 0 0 0 1 1h7v1a1 1 0 0 0 1 1h8a1 1 0 0 0 1-1v-1.38l1.29.64a7.063 7.063 0 0 0 3.13.74h14.97a6.93 6.93 0 0 0 3.5-.94l16.8-9.7a4.009 4.009 0 0 0 1.46-5.46zm-51.15 13.1h-6v-12h6zm8 2h-6v-16h6zm40.69-11.37-16.8 9.7a4.982 4.982 0 0 1 -2.5.67h-14.97a4.956 4.956 0 0 1 -2.24-.53l-2.18-1.09v-10.6l5.73-1.43a4.964 4.964 0 0 1 2.51.02l14.92 4a1.991 1.991 0 0 1 .48 3.66 1.95 1.95 0 0 1 -1.51.2l-11.93-3.2a1 1 0 0 0 -.52 1.94l11.93 3.19a4.072 4.072 0 0 0 1.04.14 3.916 3.916 0 0 0 1.99-.54 3.975 3.975 0 0 0 1.87-2.43 4.118 4.118 0 0 0 .11-1.35l10.07-5.81a2.025 2.025 0 0 1 2.72.73 2 2 0 0 1 -.72 2.73z"/><path d="m16 59a1 1 0 0 0 1-1v-1a1 1 0 0 0 -2 0v1a1 1 0 0 0 1 1z"/><path d="m54.462 24.75a17.093 17.093 0 0 0 -10.086-11.509 1 1 0 1 0 -.752 1.853 15.083 15.083 0 0 1 8.9 10.156 1 1 0 0 0 .968.75.988.988 0 0 0 .251-.032 1 1 0 0 0 .719-1.218z"/><path d="m40.124 12.132a17.12 17.12 0 0 0 -2.124-.132 1 1 0 0 0 0 2 15.058 15.058 0 0 1 1.876.117 1.063 1.063 0 0 0 .125.008 1 1 0 0 0 .123-1.993z"/></g></g></svg>