<svg height="512pt" viewBox="0 0 512 512" width="512pt" xmlns="http://www.w3.org/2000/svg"><path d="m512 256c0 141.386719-114.613281 256-256 256s-256-114.613281-256-256 114.613281-256 256-256 256 114.613281 256 256zm0 0" fill="#009ae5"/><path d="m506.046875 311.050781-113.445313-112.765625c-3.558593-3.894531-7.746093-7.296875-12.542968-10.164062-8.238282-4.914063-19.222656-7.402344-32.648438-7.402344-18.035156 0-34.214844 3.382812-48.089844 10.0625-4.734374 2.277344-9.121093 4.902344-13.152343 7.855469l-16.664063-14.027344h-20.476562l-76.742188-76.703125c-6.714844-7.410156-16.40625-12.074219-27.171875-12.074219h-.417969c-20.234374 0-36.695312 16.460938-36.695312 36.695313 0 9.765625 3.839844 18.648437 10.085938 25.226562l26.839843 26.851563h-32.597656v207.15625l119.054687 119.054687c8.101563.773438 16.3125 1.183594 24.617188 1.183594 122.484375 0 224.859375-86.027344 250.046875-200.949219zm0 0" fill="#0070b4"/><g fill="#fff"><path d="m145.113281 95.832031h-.417969c-20.234374 0-36.695312 16.460938-36.695312 36.695313s16.460938 36.695312 36.695312 36.695312h.417969c20.234375 0 36.695313-16.460937 36.695313-36.695312s-16.460938-36.695313-36.695313-36.695313zm0 0"/><path d="m112.324219 184.605469h65.15625v207.152343h-65.15625zm0 0"/><path d="m408.175781 232.910156c-1.449219-9.214844-4.453125-17.824218-8.933593-25.59375-4.515626-7.832031-10.972657-14.289062-19.183594-19.195312-8.238282-4.914063-19.222656-7.402344-32.648438-7.402344-18.035156 0-34.214844 3.382812-48.089844 10.0625-12.371093 5.949219-22.382812 14.246094-29.816406 24.691406v-30.867187h-58.929687v207.15625h65.152343v-118.308594c1.75-4.933594 4.207032-9.570313 7.304688-13.78125 3.140625-4.273437 6.777344-8.039063 10.8125-11.191406 4.019531-3.144531 8.222656-5.628907 12.496094-7.386719 4.21875-1.734375 8.480468-2.617188 12.671875-2.617188 7.914062 0 14.101562 2.820313 18.917969 8.617188 4.808593 5.804688 7.25 15.375 7.25 28.445312v116.222657h65.152343v-132.171875c0-8.558594-.722656-17.535156-2.15625-26.679688zm0 0"/></g><path d="m410.328125 259.589844v132.171875h-65.148437v-116.222657c0-13.070312-2.441407-22.640624-7.25-28.4375-4.820313-5.800781-11.007813-8.621093-18.917969-8.621093-4.191407 0-8.453125.878906-12.671875 2.609375-4.269532 1.761718-8.480469 4.25-12.5 7.390625-4.03125 3.148437-7.667969 6.917969-10.808594 11.191406-3.101562 4.207031-5.550781 8.847656-7.300781 13.777344v118.3125h-19.730469v-207.152344h13.5v30.859375c7.441406-10.4375 17.449219-18.738281 29.820312-24.6875 13.871094-6.679688 30.050782-10.0625 48.089844-10.0625 13.429688 0 24.410156 2.492188 32.648438 7.402344 8.210937 4.910156 14.671875 11.367187 19.179687 19.199218 4.480469 7.769532 7.492188 16.378907 8.941407 25.589844 1.429687 9.140625 2.148437 18.121094 2.148437 26.679688zm0 0" fill="#fff5cb"/></svg>