<svg id="Capa_1" enable-background="new 0 0 512 512" height="512" viewBox="0 0 512 512" width="512" xmlns="http://www.w3.org/2000/svg"><g><g><g><g><path d="m501.698 472.645h-491.396c-5.69 0-10.302-4.612-10.302-10.302v-325.535c0-5.69 4.612-10.302 10.302-10.302h491.396c5.69 0 10.302 4.612 10.302 10.302v325.536c0 5.689-4.612 10.301-10.302 10.301z" fill="#fddd45"/><path d="m512 136.807v325.537c0 5.687-4.615 10.302-10.302 10.302h-41.238c5.697 0 10.302-4.615 10.302-10.302v-325.537c0-5.687-4.605-10.302-10.302-10.302h41.238c5.687 0 10.302 4.615 10.302 10.302z" fill="#f8c52d"/><g><path d="m33.954 377.516v-265.96c0-5.69 4.612-10.302 10.302-10.302h170.537c22.758 0 41.207 18.449 41.207 41.207l15.386 151.012-15.386 130.287z" fill="#d9e7eb"/><path d="m208.095 341.997h-125.969c-4.268 0-7.726-3.459-7.726-7.726s3.459-7.726 7.726-7.726h125.969c4.268 0 7.726 3.459 7.726 7.726s-3.459 7.726-7.726 7.726z" fill="#a0acb9"/><path d="m214.793 101.255-60.903-.002c-2.549 3.776-4.656 7.875-6.228 12.232-23.569 7.888-40.556 30.142-40.556 56.366 0 21.903 11.851 41.035 29.489 51.342-.421 2.633-.643 5.333-.643 8.085 0 15.814 7.23 29.932 18.557 39.251-1.26 4.47-1.936 9.184-1.936 14.057 0 28.545 23.14 51.684 51.684 51.684 3.6 0 7.112-.372 10.504-1.073v90.566c0 5.687-4.605 10.302-10.302 10.302h41.238c5.687 0 10.302-4.615 10.302-10.302v-281.3c.001-22.757-18.449-41.208-41.206-41.208z" fill="#c5d3dd"/><g fill="#a0acb9"><path d="m148.273 185.952h-66.147c-4.268 0-7.726-3.459-7.726-7.726 0-4.268 3.459-7.726 7.726-7.726h66.147c4.268 0 7.726 3.459 7.726 7.726s-3.459 7.726-7.726 7.726z"/><path d="m158.857 217.161h-76.731c-4.268 0-7.726-3.459-7.726-7.726s3.459-7.726 7.726-7.726h76.731c4.268 0 7.726 3.459 7.726 7.726s-3.458 7.726-7.726 7.726z"/><path d="m172.253 248.37h-90.127c-4.268 0-7.726-3.459-7.726-7.726s3.459-7.726 7.726-7.726h90.128c4.268 0 7.726 3.459 7.726 7.726s-3.459 7.726-7.727 7.726z"/></g><path d="m256 423.76v-281.299c0-22.758 18.449-41.207 41.207-41.207h170.537c5.69 0 10.302 4.612 10.302 10.302v265.965z" fill="#d9e7eb"/><path d="m436.817 111.557v277.432l41.228-11.468v-265.964c0-5.687-4.615-10.302-10.302-10.302h-41.228c5.687.001 10.302 4.616 10.302 10.302z" fill="#c5d3dd"/><path d="m256.058 140.286v146.045c0 12.735 5.558 24.167 14.375 32.02 9.407 9.81 22.644 15.92 37.31 15.92 28.544 0 51.684-23.14 51.684-51.684 0-4.873-.675-9.588-1.936-14.057 11.327-9.319 18.557-23.437 18.557-39.251 0-2.752-.222-5.451-.643-8.085 17.638-10.307 29.489-29.439 29.489-51.342 0-26.224-16.986-48.478-40.556-56.366-1.572-4.357-3.679-8.455-6.228-12.232h-60.903c-22.028 0-40.018 17.285-41.149 39.032z" fill="#c5d3dd"/><g fill="#a0acb9"><path d="m429.874 185.952h-65.834c-4.268 0-7.726-3.459-7.726-7.726 0-4.268 3.459-7.726 7.726-7.726h65.834c4.268 0 7.726 3.459 7.726 7.726.001 4.267-3.458 7.726-7.726 7.726z"/><path d="m429.874 217.161h-76.997c-4.268 0-7.726-3.459-7.726-7.726s3.459-7.726 7.726-7.726h76.997c4.268 0 7.726 3.459 7.726 7.726s-3.458 7.726-7.726 7.726z"/><path d="m429.874 248.37h-89.649c-4.268 0-7.726-3.459-7.726-7.726s3.459-7.726 7.726-7.726h89.649c4.268 0 7.726 3.459 7.726 7.726s-3.458 7.726-7.726 7.726z"/></g></g><g><path d="m256 418.728v5.027c0 5.697-4.615 10.302-10.302 10.302h-201.441c-5.687 0-10.302-4.605-10.302-10.302v-10.24l6.542-7.726-6.542-7.726v-20.542h180.838c22.757 0 41.207 18.44 41.207 41.207z" fill="#c5d3dd"/><path d="m256 418.726v5.038c0 5.687-4.615 10.302-10.302 10.302h-41.238c5.697 0 10.302-4.615 10.302-10.302v-5.038c0-22.757-18.44-41.207-41.207-41.207h41.238c22.756 0 41.207 18.451 41.207 41.207z" fill="#a0acb9"/></g><g><path d="m478.045 398.063-7.283 7.726 7.283 7.726v10.24c0 5.697-4.615 10.302-10.302 10.302h-201.441c-5.687 0-10.302-4.605-10.302-10.302v-5.027c0-22.767 18.45-41.207 41.207-41.207h180.838z" fill="#c5d3dd"/><path d="m478.045 398.063-7.283 7.726 7.283 7.726v10.25c0 5.687-4.615 10.302-10.302 10.302h-41.228c5.687 0 10.302-4.615 10.302-10.302v-46.245h41.228z" fill="#a0acb9"/></g></g><g><g><g fill="#7a8d98"><path d="m404.882 170.496c-.052 5.347-.814 10.528-2.194 15.453h-38.642c-4.275 0-7.726-3.451-7.726-7.726 0-4.265 3.451-7.726 7.726-7.726h40.836z"/><path d="m395.641 201.711c-3.791 5.965-8.623 11.198-14.227 15.453h-28.536c-4.265 0-7.726-3.462-7.726-7.726 0-4.265 3.461-7.726 7.726-7.726h42.763z"/><path d="m375.913 232.915c-.381 5.44-1.617 10.632-3.575 15.453h-32.111c-4.265 0-7.726-3.451-7.726-7.726 0-4.265 3.462-7.726 7.726-7.726h35.686z"/></g><path d="m429.874 341.997h-125.969c-4.268 0-7.726-3.459-7.726-7.726s3.459-7.726 7.726-7.726h125.969c4.268 0 7.726 3.459 7.726 7.726s-3.458 7.726-7.726 7.726z" fill="#a0acb9"/><path d="m334.922 326.548c-7.891 4.904-17.204 7.726-27.176 7.726-3.935 0-7.778-.443-11.456-1.288.608-3.657 3.781-6.439 7.613-6.439h31.019z" fill="#7a8d98"/></g><path d="m375.408 183.919c.423 2.627.639 5.326.639 8.077 0 15.813-7.232 29.937-18.554 39.25 1.257 4.471 1.937 9.189 1.937 14.062 0 28.546-23.148 51.684-51.684 51.684-14.67 0-27.908-6.109-37.313-15.917-8.818-7.85-14.371-19.285-14.371-32.018v-153.909c0-30.813 24.972-55.795 55.784-55.795 24.168 0 44.741 15.36 52.488 36.85 23.571 7.891 40.558 30.143 40.558 56.371 0 21.903-11.847 41.033-29.484 51.345z" fill="#f59697"/><path d="m375.408 183.911c.423 2.637.639 5.336.639 8.087 0 15.813-7.232 29.937-18.554 39.25 1.257 4.471 1.937 9.189 1.937 14.062 0 28.546-23.148 51.684-51.684 51.684-7.335 0-14.299-1.525-20.624-4.275 18.286-7.963 31.07-26.187 31.07-47.409 0-3.256-.299-6.443-.875-9.533-.519-2.784.358-5.635 2.375-7.624 9.337-9.208 15.128-22.005 15.128-36.155 0-1.387-.058-2.761-.169-4.12-.195-2.388.871-4.724 2.855-6.067 15.78-10.679 26.159-28.744 26.159-49.234 0-26.228-16.988-48.48-40.558-56.371-5.419-15.01-17.091-27.032-31.874-32.914 6.377-2.545 13.331-3.935 20.614-3.935 24.168 0 44.741 15.36 52.488 36.85 23.571 7.891 40.558 30.143 40.558 56.371-.001 21.901-11.848 41.031-29.485 51.333z" fill="#f17d7e"/><g fill="#7a8d98"><g><path d="m156 178.222c0 4.275-3.461 7.726-7.726 7.726h-38.961c-1.38-4.924-2.143-10.106-2.194-15.453h41.156c4.264.001 7.725 3.462 7.725 7.727z"/><path d="m166.58 209.437c0 4.265-3.451 7.726-7.726 7.726h-28.268c-5.604-4.255-10.436-9.488-14.227-15.453h42.495c4.275.001 7.726 3.462 7.726 7.727z"/><path d="m179.983 240.641c0 4.275-3.461 7.726-7.726 7.726h-32.595c-1.958-4.821-3.194-10.013-3.575-15.453h36.17c4.264.001 7.726 3.462 7.726 7.727z"/></g><path d="m156 178.222c0 4.275-3.461 7.726-7.726 7.726h-38.961c-1.38-4.924-2.143-10.106-2.194-15.453h41.156c4.264.001 7.725 3.462 7.725 7.727z"/><path d="m166.58 209.437c0 4.265-3.451 7.726-7.726 7.726h-28.268c-5.604-4.255-10.436-9.488-14.227-15.453h42.495c4.275.001 7.726 3.462 7.726 7.727z"/><path d="m214.762 338.158v-4.966c-3.389.7-6.902 1.082-10.508 1.082-9.972 0-19.285-2.823-27.176-7.726h31.019c4.265 0 7.726 3.451 7.726 7.726 0 1.422-.381 2.751-1.061 3.884z"/></g><path d="m107.105 132.573c0-26.224 16.986-48.478 40.556-56.366 7.755-21.489 28.328-36.851 52.491-36.851 30.812 0 55.79 24.978 55.79 55.79v153.907c0 12.735-5.558 24.167-14.375 32.02-9.407 9.811-22.644 15.92-37.31 15.92-28.544 0-51.684-23.14-51.684-51.684 0-4.873.675-9.588 1.936-14.057-11.328-9.319-18.558-23.437-18.558-39.251 0-2.752.222-5.451.643-8.085-17.638-10.308-29.489-29.44-29.489-51.343z" fill="#f59697"/><path d="m255.938 95.148v153.899c0 12.743-5.553 24.168-14.371 32.028-9.406 9.807-22.643 15.917-37.313 15.917-7.325 0-14.299-1.525-20.604-4.275 6.315-2.761 11.981-6.737 16.689-11.641 8.808-7.86 14.371-19.285 14.371-32.028v-153.9c0-23.529-14.567-43.659-35.181-51.859 6.377-2.534 13.341-3.935 20.624-3.935 30.814 0 55.785 24.982 55.785 55.794z" fill="#f17d7e"/></g></g><g><g><g><g fill="#a0acb9"><path d="m134.933 279.579h-52.807c-4.268 0-7.726-3.459-7.726-7.726s3.459-7.726 7.726-7.726h52.807c4.268 0 7.726 3.459 7.726 7.726s-3.459 7.726-7.726 7.726z"/><path d="m134.933 310.788h-52.807c-4.268 0-7.726-3.459-7.726-7.726s3.459-7.726 7.726-7.726h52.807c4.268 0 7.726 3.459 7.726 7.726s-3.459 7.726-7.726 7.726z"/><path d="m82.126 232.918h90.127"/></g></g><g><g><g><path d="m33.955 398.062h189.378c4.268 0 7.726 3.459 7.726 7.726s-3.459 7.726-7.726 7.726h-189.378z" fill="#7a8d98"/></g></g></g><path d="m214.422 413.515h8.911c4.268 0 7.726-3.459 7.726-7.726s-3.459-7.726-7.726-7.726h-14.131c2.702 4.651 4.517 9.877 5.22 15.452z" fill="#596d76"/><g><g><path d="m478.045 413.515h-189.378c-4.268 0-7.726-3.459-7.726-7.726s3.459-7.726 7.726-7.726h189.378z" fill="#7a8d98"/></g></g><path d="m436.817 398.062v15.453h41.228v-15.452-.001z" fill="#596d76"/></g><g><g><g fill="#a0acb9"><path d="m429.874 279.579h-52.807c-4.268 0-7.726-3.459-7.726-7.726s3.459-7.726 7.726-7.726h52.807c4.268 0 7.726 3.459 7.726 7.726s-3.458 7.726-7.726 7.726z"/><path d="m429.874 310.788h-52.807c-4.268 0-7.726-3.459-7.726-7.726s3.459-7.726 7.726-7.726h52.807c4.268 0 7.726 3.459 7.726 7.726s-3.458 7.726-7.726 7.726z"/></g></g></g><g><g><g fill="#fb4a59"><path d="m299.163 128.658c-.201 0-.403-.007-.608-.023-4.255-.331-7.435-4.048-7.104-8.303 1.569-20.164 8.913-35.011 21.829-44.131 22.051-15.572 51.814-7.794 53.07-7.454 4.12 1.112 6.559 5.352 5.448 9.472-1.11 4.115-5.338 6.556-9.457 5.452-.403-.105-24.204-6.163-40.211 5.197-8.942 6.347-14.079 17.337-15.273 32.663-.315 4.051-3.699 7.127-7.694 7.127z"/><path d="m349.396 151.346c8.244-9.55 10.929-23.05 7.944-40.176-.733-4.203-4.736-7.016-8.939-6.285-4.203.733-7.017 4.734-6.285 8.939 2.207 12.661.579 22.057-4.839 27.929-1.493 1.618-3.216 2.908-5.04 3.946-.206.102-.406.215-.602.335-8.578 4.564-19.122 3.695-19.363 3.674-4.253-.425-8.008 2.68-8.435 6.916-.428 4.246 2.668 8.034 6.913 8.461.226.023 1.644.156 3.863.156 4.779 0 13.271-.615 21.561-4.262 1.7.809 3.952 2.276 5.14 4.712 2.131 4.37.187 10.596-1.819 15.047-1.753 3.89-.02 8.466 3.87 10.218 1.03.465 2.109.684 3.17.684 2.946 0 5.76-1.694 7.048-4.554 4.95-10.987 5.452-20.55 1.492-28.427-1.535-3.055-3.555-5.437-5.679-7.313z"/><path d="m324.736 249.62c-7.468 0-14.551-1.227-20.513-3.314-4.028-1.409-6.15-5.818-4.74-9.845 1.41-4.028 5.818-6.154 9.845-4.74 11.669 4.083 30.224 3.775 43.396-6.55 3.356-2.633 8.213-2.045 10.847 1.314 2.633 3.358 2.044 8.215-1.314 10.847-11.207 8.785-24.908 12.288-37.521 12.288z"/></g><path d="m288.742 221.39c-1.175 0-2.368-.27-3.488-.837-3.806-1.93-5.327-6.579-3.397-10.385 8.379-16.528 21.817-23.075 36.873-17.961 4.04 1.373 6.202 5.762 4.83 9.802-1.373 4.04-5.765 6.199-9.802 4.83-3.008-1.024-10.995-3.738-18.119 10.317-1.361 2.686-4.078 4.234-6.897 4.234z" fill="#f17d7e"/><path d="m286.71 139.786c0 4.265-3.462 7.726-7.726 7.726-4.832 0-8.365 1.288-10.796 3.946-5.192 5.645-4.564 16.04-4.554 16.143.361 4.255-2.792 7.994-7.036 8.355-.185.021-.361.031-.536.021v-34.12c.237-.288.484-.567.742-.845 5.378-5.862 13.042-8.952 22.18-8.952 4.264 0 7.726 3.461 7.726 7.726z" fill="#f17d7e"/></g><g><g fill="#fb4a59"><path d="m212.837 128.658c-3.996.001-7.379-3.076-7.695-7.127-1.193-15.326-6.331-26.316-15.273-32.663-16.061-11.402-39.975-5.261-40.214-5.196-4.121 1.09-8.35-1.359-9.45-5.474-1.099-4.116 1.331-8.341 5.444-9.451 1.257-.339 31.019-8.118 53.07 7.454 12.915 9.12 20.26 23.967 21.829 44.131.331 4.255-2.849 7.972-7.104 8.303-.204.016-.406.023-.607.023z"/><g><path d="m154.862 158.659c-3.96 7.876-3.458 17.44 1.492 28.427 1.289 2.86 4.103 4.554 7.048 4.554 1.061 0 2.14-.22 3.17-.684 3.89-1.753 5.623-6.328 3.87-10.218-2.006-4.452-3.95-10.677-1.819-15.047 1.188-2.437 3.441-3.903 5.141-4.712 8.29 3.647 16.781 4.262 21.559 4.262 2.218 0 3.637-.133 3.863-.156 4.233-.426 7.311-4.193 6.901-8.43-.41-4.235-4.193-7.353-8.42-6.948-.16.012-16.373 1.4-25.008-7.955-5.419-5.871-7.046-15.268-4.839-27.929.732-4.204-2.081-8.205-6.285-8.939-4.203-.737-8.206 2.081-8.939 6.285-2.986 17.127-.301 30.626 7.944 40.176-2.121 1.877-4.142 4.259-5.678 7.314z"/><path d="m202.672 231.72c-11.667 4.085-30.223 3.775-43.396-6.55-3.357-2.632-8.213-2.045-10.847 1.314-2.633 3.358-2.044 8.215 1.314 10.847 11.208 8.786 24.907 12.289 37.521 12.289 7.466 0 14.552-1.227 20.513-3.314 4.028-1.409 6.15-5.818 4.74-9.845-1.409-4.026-5.815-6.153-9.845-4.741z"/></g><path d="m223.258 221.39c-2.819 0-5.535-1.548-6.897-4.234-7.126-14.055-15.113-11.339-18.119-10.317-4.042 1.374-8.429-.791-9.802-4.83-1.372-4.04.79-8.429 4.83-9.802 15.055-5.117 28.494 1.432 36.873 17.961 1.93 3.806.408 8.456-3.397 10.385-1.12.568-2.313.837-3.488.837z"/><path d="m255.938 141.857v34.12c-.175.01-.35 0-.536-.021-4.244-.361-7.386-4.08-7.046-8.324.227-2.905-.175-11.466-4.574-16.215-2.442-2.627-5.954-3.904-10.765-3.904-4.265 0-7.726-3.461-7.726-7.726s3.462-7.726 7.726-7.726c9.138 0 16.802 3.091 22.18 8.952.257.277.504.555.741.844z"/></g></g></g></g></g></g></svg>