<svg id="Capa_1" enable-background="new 0 0 512 512" height="512" viewBox="0 0 512 512" width="512" xmlns="http://www.w3.org/2000/svg"><g><circle cx="256" cy="256" fill="#ff6a4d" r="256"/><path d="m512 256c0-13.164-.997-26.095-2.913-38.724l-108.086-108.085-71.286 71.286-14.692-14.692-219.023 219.023 124.768 124.768c11.519 1.585 23.277 2.424 35.232 2.424 141.385 0 256-114.615 256-256z" fill="#fa455c"/><g><path d="m256 384.808h-160v-250h160l20.294 125z" fill="#97cafa"/><path d="m256 134.808h160v250h-160z" fill="#5eb5fc"/><g fill="#f49f36"><path d="m387.88 183.607h41.24v20h-41.24z"/><path d="m387.88 224.191h41.24v20h-41.24z"/><path d="m387.88 264.774h41.24v20h-41.24z"/></g><path d="m256 359.191h-145v-250h145l13.588 147.029z" fill="#fff"/><path d="m256 109.191h145v250h-145z" fill="#e9edf5"/><g fill="#e9edf5"><path d="m133.5 304.191h50v20h-50z"/><path d="m133.5 264.191h100v20h-100z"/><path d="m133.5 224.191h100v20h-100z"/><path d="m133.5 183.607h100v20h-100z"/><path d="m133.5 143.023h100v20h-100z"/></g><g><path d="m363.99 185.545c-2.28 0-4.465.4-6.494 1.13-5.082-10.927-16.151-18.506-28.996-18.506s-23.914 7.579-28.996 18.506c-2.029-.73-4.214-1.13-6.494-1.13-10.594 0-19.182 8.588-19.182 19.182 0 2.317.421 4.533 1.175 6.588h106.994c.754-2.056 1.175-4.271 1.175-6.588 0-10.594-8.588-19.182-19.182-19.182z" fill="#95cc29"/><circle cx="328.5" cy="205.215" fill="#fa455c" r="13.121"/><path d="m386.378 192.986c-21.587 0-41.567 6.872-57.878 18.545v82.374l41.689 6.307z" fill="#f49f36"/><path d="m328.5 211.531c-16.311-11.673-36.292-18.545-57.878-18.545l16.19 107.226h83.377v-7.659c0-33.402-16.45-62.961-41.689-81.022z" fill="#fcc74c"/></g></g><g><path d="m205.446 350.699v-65.869c0-6.7 5.659-12.131 12.639-12.131s12.639 5.431 12.639 12.131v41.673c0-6.7 5.659-12.131 12.639-12.131s12.639 5.431 12.639 12.131v8.801l8.918 41.188-8.918 62.832-38.462-10.109v-12.937c-12.798-5.552-21.709-17.903-21.709-32.26v-9.485c-.001-9.181 3.642-17.544 9.615-23.834z" fill="#fdccbe"/><path d="m268.64 323.173c6.98 0 12.639 5.431 12.639 12.131v8.801c0-6.7 5.659-12.131 12.639-12.131s12.639 5.431 12.639 12.131v63.795c-1.627 4.746-6.281 8.544-11.102 10.354v10.962l-39.453 10.109v-104.02c-.001-6.701 5.658-12.132 12.638-12.132z" fill="#fcbdab"/><path d="m205.446 424.185v25.248h50.555l5.923-12.624-5.923-12.624z" fill="#fff"/><path d="m256.001 424.185h50.555v25.248h-50.555z" fill="#e9edf5"/></g></g></svg>