<svg id="Layer_1" height="512" viewBox="0 0 42 39" width="512" xmlns="http://www.w3.org/2000/svg"><path d="m36 0c-3.305 0-6.004 2.695-6.004 6 0 .941.223 1.832.609 2.625l-14.734 7.719c-1.242-2.989-4.191-5.094-7.621-5.094-4.547 0-8.25 3.699-8.25 8.25 0 4.547 3.703 8.25 8.25 8.25 3.43 0 6.375-2.105 7.621-5.09l14.734 7.723c-.391.789-.609 1.681-.609 2.621 0 3.305 2.699 5.996 6.004 5.996s6-2.691 6-5.996-2.695-6.004-6-6.004c-1.828 0-3.469.824-4.57 2.121l-15.11-7.914c.118-.551.18-1.125.18-1.707 0-.586-.062-1.152-.176-1.703l15.105-7.91c1.105 1.289 2.746 2.109 4.57 2.109 3.305 0 6-2.691 6-5.996s-2.694-6-5.999-6z" fill="#030303"/><path d="m36 28.5c2.496 0 4.5 2.008 4.5 4.504 0 2.492-2.004 4.496-4.5 4.496s-4.5-2.004-4.5-4.496c0-2.496 2.004-4.504 4.5-4.504z" fill="#8479c0"/><path d="m8.25 12.75c3.738 0 6.75 3.012 6.75 6.75 0 3.734-3.012 6.75-6.75 6.75s-6.75-3.016-6.75-6.75c0-3.738 3.012-6.75 6.75-6.75z" fill="#bbf0ff"/><path d="m36 1.5c2.496 0 4.5 2.008 4.5 4.5 0 2.496-2.004 4.504-4.5 4.504s-4.5-2.008-4.5-4.504c0-2.492 2.004-4.5 4.5-4.5z" fill="#8479c0"/><path d="m8.176 14.25c-1.613.043-2.926 1.379-2.926 3 0 .84.348 1.598.91 2.145-1 .675-1.656 1.816-1.656 3.105 0 .41.336.746.746.746s.746-.336.746-.746c0-1.25 1.004-2.246 2.254-2.246s2.25.996 2.25 2.246c0 .414.336.75.75.746.414 0 .746-.336.75-.746 0-1.289-.66-2.43-1.656-3.105.558-.547.906-1.305.906-2.145 0-1.648-1.352-3-3-3-.027 0-.051 0-.078 0z" fill="#030303"/><path d="m8.25 15.75c.836 0 1.5.664 1.5 1.5 0 .84-.664 1.5-1.5 1.5s-1.5-.66-1.5-1.5c0-.836.664-1.5 1.5-1.5z" fill="#ecf5f6"/><path d="m36 1.5c-.258 0-.508.02-.75.063 2.133.355 3.75 2.199 3.75 4.437s-1.617 4.086-3.75 4.441c.242.039.496.063.75.063 2.496 0 4.5-2.008 4.5-4.504 0-2.492-2.004-4.5-4.5-4.5z" fill="#6355af"/><path d="m36 28.5c-.258 0-.508.023-.75.063 2.133.354 3.75 2.202 3.75 4.44s-1.617 4.078-3.75 4.435c.242.039.496.062.75.062 2.496 0 4.5-2.004 4.5-4.496 0-2.496-2.004-4.504-4.5-4.504z" fill="#6355af"/><path d="m8.25 12.75c-.254 0-.504.016-.75.043 3.383.371 6 3.223 6 6.707 0 3.48-2.617 6.336-6 6.707.246.027.496.043.75.043 3.738 0 6.75-3.016 6.75-6.75 0-3.738-3.012-6.75-6.75-6.75z" fill="#8ae5ff"/></svg>