<svg height="512" viewBox="0 0 152 152" width="512" xmlns="http://www.w3.org/2000/svg" xmlns:xlink="http://www.w3.org/1999/xlink"><linearGradient id="linear-gradient" gradientUnits="userSpaceOnUse" x1="76" x2="76" y1="152"><stop offset="0" stop-color="#fa3900"/><stop offset="1" stop-color="#fb8c00"/></linearGradient><linearGradient id="linear-gradient-2" gradientUnits="userSpaceOnUse" x1="54.41" x2="125.74" y1="62.4" y2="133.73"><stop offset="0" stop-color="#bf360c"/><stop offset="1" stop-color="#bf360c" stop-opacity="0"/></linearGradient><g id="Layer_2" data-name="Layer 2"><g id="Color"><g id="_18.Soundcloud" data-name="18.Soundcloud"><circle id="Background" cx="76" cy="76" fill="url(#linear-gradient)" r="76"/><path id="Shadow" d="m144.64 108.64a76.13 76.13 0 0 1 -47.59 40.36l-60.23-60.19h.11a.32.32 0 0 0 .32-.3l.7-4.37-.7-4.44a.53.53 0 0 0 0-.12l1.85 1.85-.3 2.71.79 7a.34.34 0 0 0 .33.32.35.35 0 0 0 .34-.32l.89-7-.92-7.14a.42.42 0 0 0 0-.12l2.11 2.12-.45 5.15.74 8.21a.4.4 0 0 0 .8 0l.85-8.21-.85-8.51 2.11 2.1-.54 6.42.71 8.47a.48.48 0 0 0 .47.46.49.49 0 0 0 .47-.46l.8-8.47-.8-8.75a.17.17 0 0 0 0-.1l2.1 2.11-.55 6.74.66 8.54a.54.54 0 0 0 .54.52.55.55 0 0 0 .54-.52l.75-8.54-.76-8.16a.47.47 0 0 0 0-.17l1.8 1.8-.31 6.5.58 8.57a.61.61 0 0 0 1.21 0l.71-8.53-.71-13.17a.4.4 0 0 0 0-.15l1.79 1.73-.42 11.63.59 8.48a.69.69 0 0 0 .67.67.7.7 0 0 0 .68-.67l.66-8.48-.7-16.21a.76.76 0 0 0 -.06-.26l1.86 1.86c-.15 5-.44 14.59-.44 14.59l.54 8.4a.74.74 0 0 0 1.48 0l.62-8.39-.62-17.59a.74.74 0 0 0 -.13-.41l1.82 1.8-.45 16.17.51 8.34a.81.81 0 0 0 1.62 0l.56-8.34-.56-18.17a.86.86 0 0 0 -.15-.45l1.75 1.74-.44 16.89.47 8.27a.88.88 0 0 0 1.75 0l.53-8.26-.53-17.71a.92.92 0 0 0 -.26-.62l1.77 1.77-.41 16.56.42 8.22a1 1 0 0 0 1.9 0l.47-8.2-.5-17.1a.94.94 0 0 0 -.23-.61l1.56 1.56-.31 16.11s.39 8.16.39 8.16a1 1 0 0 0 .24.6 1 1 0 0 0 1.49.07 1.07 1.07 0 0 0 .3-.72v-.8l.39-7.34-.43-20.31a1 1 0 0 0 -.25-.65l1.46 1.46-.39 19.5.22 4.07.22 4a1.08 1.08 0 0 0 2.16 0l.49-8-.41-22.21a1 1 0 0 0 -.16-.54l1.08 1.07v29.65a1.16 1.16 0 0 0 1.06 1.13h27.26a9.8 9.8 0 0 0 8.57-14.61z" fill="url(#linear-gradient-2)"/><g id="Icon"><g fill="#f0f1f1"><path d="m37.25 88.53a.32.32 0 0 1 -.32.3.33.33 0 0 1 -.32-.31l-.61-4.36.58-4.44a.33.33 0 0 1 .32-.31.32.32 0 0 1 .32.31l.7 4.44z"/><path d="m40.23 91.18a.35.35 0 0 1 -.34.32.34.34 0 0 1 -.33-.32l-.79-7 .79-7.18a.35.35 0 0 1 .33-.33.36.36 0 0 1 .34.33l.89 7.18z"/><path d="m43.43 92.37a.4.4 0 0 1 -.8 0l-.74-8.21.74-8.52a.4.4 0 0 1 .8 0l.85 8.52z"/><path d="m46.67 92.63a.49.49 0 0 1 -.47.46.48.48 0 0 1 -.47-.46l-.73-8.47.71-8.75a.48.48 0 0 1 .49-.41.49.49 0 0 1 .47.46l.8 8.75z"/><path d="m49.93 92.7a.55.55 0 0 1 -.54.52.54.54 0 0 1 -.54-.52l-.66-8.54.66-8.16a.54.54 0 0 1 1.08 0l.75 8.12z"/><path d="m53.21 92.7a.61.61 0 0 1 -1.21 0l-.62-8.53.62-13.17a.61.61 0 0 1 1.21 0l.71 13.22z"/><path d="m56.48 92.7a.7.7 0 0 1 -.68.67.69.69 0 0 1 -.67-.67l-.59-8.48.59-16.22a.69.69 0 0 1 .67-.67.7.7 0 0 1 .68.67l.66 16.23z"/><path d="m59.86 92.57a.74.74 0 0 1 -1.48 0l-.54-8.4s.54-17.58.54-17.59a.74.74 0 0 1 1.48 0l.62 17.59z"/><path d="m63.23 92.51a.81.81 0 0 1 -1.62 0l-.51-8.34.51-18.17a.81.81 0 0 1 1.62 0l.56 18.18z"/><path d="m66.61 92.44a.88.88 0 0 1 -1.75 0l-.47-8.27.46-17.71a.89.89 0 0 1 .88-.87.87.87 0 0 1 .88.87l.53 17.71z"/><path d="m70 92.39a1 1 0 0 1 -1.9 0l-.42-8.22.42-17.06a1 1 0 0 1 1.9 0l.47 17.07z"/><path d="m73.51 91.52v.8a1.07 1.07 0 0 1 -.3.72 1 1 0 0 1 -1.53-.04 1 1 0 0 1 -.24-.6s-.39-8.15-.39-8.16l.39-20.11v-.19a1 1 0 0 1 .47-.85.94.94 0 0 1 .55-.17 1 1 0 0 1 .54.08 1 1 0 0 1 .46.84l.43 20.31z"/><path d="m76.89 92.22a1.08 1.08 0 0 1 -2.16 0l-.22-4-.22-4.07.44-22v-.15a1.08 1.08 0 0 1 1.08-1 1.08 1.08 0 0 1 1.09 1l.48 22.16z"/></g><path d="m106.14 93.31h-27.26a1.16 1.16 0 0 1 -1.06-1.13v-31.18c0-.57.21-.87 1-1.15a17.54 17.54 0 0 1 6.29-1.18 17.36 17.36 0 0 1 17.28 15.81 10 10 0 0 1 3.8-.76 9.81 9.81 0 1 1 0 19.62z" fill="#fff"/></g></g></g></g></svg>