<?xml version="1.0" encoding="iso-8859-1"?>
<!-- Generator: Adobe Illustrator 19.0.0, SVG Export Plug-In . SVG Version: 6.00 Build 0)  -->
<svg version="1.1" id="Layer_1" xmlns="http://www.w3.org/2000/svg" xmlns:xlink="http://www.w3.org/1999/xlink" x="0px" y="0px"
	 viewBox="0 0 512 512" style="enable-background:new 0 0 512 512;" xml:space="preserve">
<path style="fill:#FFDE33;" d="M75,271H15c-8.291,0-15-6.709-15-15s6.709-15,15-15h60c8.291,0,15,6.709,15,15
	C90,264.291,83.291,271,75,271z"/>
<path style="fill:#FFBC33;" d="M497,271h-60c-8.291,0-15-6.709-15-15s6.709-15,15-15h60c8.291,0,15,6.709,15,15
	C512,264.291,505.291,271,497,271z"/>
<path style="fill:#FFDE33;" d="M85.283,441.702c-3.838,0-7.676-1.465-10.605-4.395c-5.859-5.859-5.859-15.352,0-21.211
	l42.437-42.422c5.859-5.859,15.352-5.859,21.211,0s5.859,15.352,0,21.211l-42.437,42.422
	C92.959,440.237,89.121,441.702,85.283,441.702z"/>
<g>
	<path style="fill:#FFBC33;" d="M373.675,138.325c-5.859-5.859-5.859-15.352,0-21.211l42.422-42.422
		c5.859-5.859,15.352-5.859,21.211,0s5.859,15.352,0,21.211l-42.422,42.422C389.026,144.185,379.534,144.185,373.675,138.325z"/>
	<path style="fill:#FFBC33;" d="M416.097,437.308l-42.422-42.422c-5.859-5.859-5.859-15.352,0-21.211s15.352-5.859,21.211,0
		l42.422,42.422c5.859,5.859,5.859,15.352,0,21.211C431.448,443.167,421.956,443.167,416.097,437.308z"/>
</g>
<path style="fill:#FFDE33;" d="M127.72,142.72c-3.838,0-7.676-1.465-10.605-4.395L74.678,95.903c-5.859-5.859-5.859-15.352,0-21.211
	s15.352-5.859,21.211,0l42.437,42.422c5.859,5.859,5.859,15.352,0,21.211C135.396,141.255,131.558,142.72,127.72,142.72z"/>
<path style="fill:#5C5F66;" d="M256,392L256,392c-74.559,0-136-61.441-136-136l0,0c0-74.558,61.441-136,136-136l0,0
	c74.558,0,136,61.441,136,136l0,0C392,330.559,330.559,392,256,392z"/>
<path style="fill:#FFBC33;" d="M392,256c0-74.559-61.441-136-136-136v272C330.559,392,392,330.559,392,256z"/>
<path style="fill:#FFDE33;" d="M256,512c-8.291,0-15-6.709-15-15v-60c0-8.291,6.709-15,15-15c8.291,0,15,6.709,15,15v60
	C271,505.291,264.291,512,256,512z"/>
<path style="fill:#FFBC33;" d="M271,497v-60c0-8.291-6.709-15-15-15v90C264.291,512,271,505.291,271,497z"/>
<path style="fill:#FFDE33;" d="M256,90c-8.291,0-15-6.709-15-15V15c0-8.291,6.709-15,15-15c8.291,0,15,6.709,15,15v60
	C271,83.291,264.291,90,256,90z"/>
<path style="fill:#FFBC33;" d="M271,75V15c0-8.291-6.709-15-15-15v90C264.291,90,271,83.291,271,75z"/>
<g>
</g>
<g>
</g>
<g>
</g>
<g>
</g>
<g>
</g>
<g>
</g>
<g>
</g>
<g>
</g>
<g>
</g>
<g>
</g>
<g>
</g>
<g>
</g>
<g>
</g>
<g>
</g>
<g>
</g>
</svg>
