<?xml version="1.0" encoding="UTF-8" standalone="no"?>
<!-- Created with Inkscape (http://www.inkscape.org/) -->

<svg
   version="1.1"
   id="svg243"
   xml:space="preserve"
   width="682.66669"
   height="682.66669"
   viewBox="0 0 682.66669 682.66669"
   xmlns="http://www.w3.org/2000/svg"
   xmlns:svg="http://www.w3.org/2000/svg"><defs
     id="defs247"><clipPath
       clipPathUnits="userSpaceOnUse"
       id="clipPath257"><path
         d="M 0,512 H 512 V 0 H 0 Z"
         id="path255" /></clipPath></defs><g
     id="g249"
     transform="matrix(1.3333333,0,0,-1.3333333,0,682.66667)"><g
       id="g251"><g
         id="g253"
         clip-path="url(#clipPath257)"><g
           id="g259"
           transform="translate(153.0347,504.5)"><path
             d="m 0,0 h -115.405 c -2.845,0 -5.143,-2.298 -5.143,-5.143 v -115.408 c 0,-2.845 2.298,-5.172 5.143,-5.172 H 0 c 2.844,0 5.171,2.327 5.171,5.172 V -5.143 C 5.171,-2.298 2.844,0 0,0 Z"
             style="fill:none;stroke:#000000;stroke-width:15;stroke-linecap:round;stroke-linejoin:round;stroke-miterlimit:10;stroke-dasharray:none;stroke-opacity:1"
             id="path261" /></g><g
           id="g263"
           transform="translate(291.8828,495.249)"><path
             d="M 0,0 H -133.677 V -107.191 H 159.591 L 187.631,-53.61 159.591,0 H 35.078"
             style="fill:none;stroke:#000000;stroke-width:15;stroke-linecap:round;stroke-linejoin:round;stroke-miterlimit:10;stroke-dasharray:none;stroke-opacity:1"
             id="path265" /></g><g
           id="g267"
           transform="translate(153.0347,318.8755)"><path
             d="m 0,0 h -115.405 c -2.845,0 -5.143,-2.327 -5.143,-5.171 V -120.58 c 0,-2.815 2.298,-5.142 5.143,-5.142 H 0 c 2.844,0 5.171,2.327 5.171,5.142 V -5.171 C 5.171,-2.327 2.844,0 0,0 Z"
             style="fill:none;stroke:#000000;stroke-width:15;stroke-linecap:round;stroke-linejoin:round;stroke-miterlimit:10;stroke-dasharray:none;stroke-opacity:1"
             id="path269" /></g><g
           id="g271"
           transform="translate(158.2056,202.4043)"><path
             d="M 0,0 V 107.22 H 293.268 L 321.308,53.61 293.268,0 Z"
             style="fill:none;stroke:#000000;stroke-width:15;stroke-linecap:round;stroke-linejoin:round;stroke-miterlimit:10;stroke-dasharray:none;stroke-opacity:1"
             id="path273" /></g><g
           id="g275"
           transform="translate(153.0347,133.2227)"><path
             d="m 0,0 h -115.405 c -2.845,0 -5.143,-2.299 -5.143,-5.143 v -115.408 c 0,-2.845 2.298,-5.172 5.143,-5.172 H 0 c 2.844,0 5.171,2.327 5.171,5.172 V -5.143 C 5.171,-2.299 2.844,0 0,0 Z"
             style="fill:none;stroke:#000000;stroke-width:15;stroke-linecap:round;stroke-linejoin:round;stroke-miterlimit:10;stroke-dasharray:none;stroke-opacity:1"
             id="path277" /></g><g
           id="g279"
           transform="translate(89.4282,469.2485)"><path
             d="M 0,0 H 11.808 V -55.19"
             style="fill:none;stroke:#000000;stroke-width:15;stroke-linecap:round;stroke-linejoin:round;stroke-miterlimit:10;stroke-dasharray:none;stroke-opacity:1"
             id="path281" /></g><g
           id="g283"
           transform="translate(110.4863,228.0024)"><path
             d="m 0,0 c 0,0 -26.833,-0.345 -28.125,0.086 -1.265,0.431 2.039,2.643 19.65,27.811 3.304,4.712 5.114,8.676 5.89,11.98 l 0.258,2.155 c 0,7.786 -6.32,14.107 -14.134,14.107 -6.867,0 -12.584,-4.885 -13.848,-11.377"
             style="fill:none;stroke:#000000;stroke-width:15;stroke-linecap:round;stroke-linejoin:round;stroke-miterlimit:10;stroke-dasharray:none;stroke-opacity:1"
             id="path285" /></g><g
           id="g287"
           transform="translate(81.4702,87.2256)"><path
             d="m 0,0 c 1.292,6.493 7.01,11.406 13.876,11.406 7.786,0 14.106,-6.321 14.106,-14.135 0,-7.786 -6.32,-14.135 -14.106,-14.135"
             style="fill:none;stroke:#000000;stroke-width:15;stroke-linecap:round;stroke-linejoin:round;stroke-miterlimit:10;stroke-dasharray:none;stroke-opacity:1"
             id="path289" /></g><g
           id="g291"
           transform="translate(95.3462,70.3613)"><path
             d="m 0,0 c 7.786,0 14.106,-6.321 14.106,-14.106 0,-7.815 -6.32,-14.136 -14.106,-14.136 -7.153,0 -13.043,5.286 -13.991,12.153 -0.086,0.661 -0.144,1.293 -0.144,1.983"
             style="fill:none;stroke:#000000;stroke-width:15;stroke-linecap:round;stroke-linejoin:round;stroke-miterlimit:10;stroke-dasharray:none;stroke-opacity:1"
             id="path293" /></g><g
           id="g295"
           transform="translate(245.5713,459.48)"><path
             d="M 0,0 H -46.254"
             style="fill:none;stroke:#000000;stroke-width:15;stroke-linecap:round;stroke-linejoin:round;stroke-miterlimit:10;stroke-dasharray:none;stroke-opacity:1"
             id="path297" /></g><g
           id="g299"
           transform="translate(293.3477,422.6484)"><path
             d="M 0,0 H -94.03"
             style="fill:none;stroke:#000000;stroke-width:15;stroke-linecap:round;stroke-linejoin:round;stroke-miterlimit:10;stroke-dasharray:none;stroke-opacity:1"
             id="path301" /></g><g
           id="g303"
           transform="translate(245.5713,275.0625)"><path
             d="M 0,0 H -46.254"
             style="fill:none;stroke:#000000;stroke-width:15;stroke-linecap:round;stroke-linejoin:round;stroke-miterlimit:10;stroke-dasharray:none;stroke-opacity:1"
             id="path305" /></g><g
           id="g307"
           transform="translate(293.3477,238.2017)"><path
             d="M 0,0 H -94.03"
             style="fill:none;stroke:#000000;stroke-width:15;stroke-linecap:round;stroke-linejoin:round;stroke-miterlimit:10;stroke-dasharray:none;stroke-opacity:1"
             id="path309" /></g><g
           id="g311"
           transform="translate(245.5713,88.2598)"><path
             d="M 0,0 H -46.254"
             style="fill:none;stroke:#000000;stroke-width:15;stroke-linecap:round;stroke-linejoin:round;stroke-miterlimit:10;stroke-dasharray:none;stroke-opacity:1"
             id="path313" /></g><g
           id="g315"
           transform="translate(293.3477,51.4282)"><path
             d="M 0,0 H -94.03"
             style="fill:none;stroke:#000000;stroke-width:15;stroke-linecap:round;stroke-linejoin:round;stroke-miterlimit:10;stroke-dasharray:none;stroke-opacity:1"
             id="path317" /></g><g
           id="g319"
           transform="translate(291.8828,123.9712)"><path
             d="M 0,0 H -133.677 V -107.191 H 159.591 L 187.631,-53.61 159.591,0 H 35.078"
             style="fill:none;stroke:#000000;stroke-width:15;stroke-linecap:round;stroke-linejoin:round;stroke-miterlimit:10;stroke-dasharray:none;stroke-opacity:1"
             id="path321" /></g></g></g></g></svg>
