<?xml version="1.0" encoding="UTF-8" standalone="no"?>
<!-- Created with Inkscape (http://www.inkscape.org/) -->

<svg
   version="1.1"
   id="svg1401"
   xml:space="preserve"
   width="682.66669"
   height="682.66669"
   viewBox="0 0 682.66669 682.66669"
   xmlns="http://www.w3.org/2000/svg"
   xmlns:svg="http://www.w3.org/2000/svg"><defs
     id="defs1405"><clipPath
       clipPathUnits="userSpaceOnUse"
       id="clipPath1419"><path
         d="M 0,512 H 512 V 0 H 0 Z"
         id="path1417" /></clipPath></defs><g
     id="g1407"
     transform="matrix(1.3333333,0,0,-1.3333333,0,682.66667)"><g
       id="g1409"
       transform="translate(204.9233,459.0049)"><path
         d="M 0,0 -47.893,-62.93 5.971,-89.758 37.567,-20.701 Z"
         style="fill:#ffcc53;fill-opacity:1;fill-rule:nonzero;stroke:none"
         id="path1411" /></g><g
       id="g1413"><g
         id="g1415"
         clip-path="url(#clipPath1419)"><g
           id="g1421"
           transform="translate(157.0303,396.0747)"><path
             d="m 0,0 -68.532,-109.627 c -5.855,-9.366 -3.009,-21.706 6.357,-27.56 3.297,-2.062 6.962,-3.044 10.583,-3.044 6.666,0 13.183,3.332 16.978,9.401 l 52.197,83.496 6.41,-27.394 -12.895,-39.105 c -3.459,-10.49 2.241,-21.798 12.731,-25.257 2.08,-0.686 4.191,-1.012 6.267,-1.012 8.397,0.001 16.217,5.332 18.99,13.743 l 14.657,44.447 c 1.152,3.495 1.318,7.238 0.48,10.821 l -10.359,44.263 z"
             style="fill:#ffcc53;fill-opacity:1;fill-rule:nonzero;stroke:none"
             id="path1423" /></g><g
           id="g1425"
           transform="translate(250.1162,255.998)"><path
             d="M 0,0 H 191.363 L 95.681,137.061 68.848,101.455 H 44.973 Z"
             style="fill:#83a9bf;fill-opacity:1;fill-rule:nonzero;stroke:none"
             id="path1427" /></g><g
           id="g1429"
           transform="translate(267.5317,475.6035)"><path
             d="m 0,0 c 0,14.58 -11.819,26.398 -26.398,26.398 -14.58,0 -26.398,-11.818 -26.398,-26.398 0,-14.58 11.818,-26.398 26.398,-26.398 C -11.819,-26.398 0,-14.58 0,0"
             style="fill:#fbc8a2;fill-opacity:1;fill-rule:nonzero;stroke:none"
             id="path1431" /></g><g
           id="g1433"
           transform="translate(267.5317,475.6035)"><path
             d="m 0,0 c 0,14.58 -11.819,26.398 -26.398,26.398 -14.58,0 -26.398,-11.818 -26.398,-26.398 0,-14.58 11.818,-26.398 26.398,-26.398 C -11.819,-26.398 0,-14.58 0,0"
             style="fill:#fbc8a2;fill-opacity:1;fill-rule:nonzero;stroke:none"
             id="path1435" /></g><g
           id="g1437"
           transform="translate(10,214.1934)"><path
             d="m 0,0 13.668,-78.799 c 0.502,-1.613 2.508,-1.597 2.991,0.024 L 38,-0.147"
             style="fill:none;stroke:#000000;stroke-width:20;stroke-linecap:round;stroke-linejoin:round;stroke-miterlimit:10;stroke-dasharray:none;stroke-opacity:1"
             id="path1439" /></g><g
           id="g1441"
           transform="translate(48,214.1934)"><path
             d="m 0,0 21.287,-78.799 c 0.502,-1.613 2.507,-1.597 2.991,0.024 L 38,-0.147"
             style="fill:none;stroke:#000000;stroke-width:20;stroke-linecap:round;stroke-linejoin:round;stroke-miterlimit:10;stroke-dasharray:none;stroke-opacity:1"
             id="path1443" /></g><g
           id="g1445"
           transform="translate(197.5947,174.1934)"><path
             d="m 0,0 c 0,-22.091 -17.909,-40 -40,-40 -22.091,0 -40,17.909 -40,40 0,22.091 17.909,40 40,40 C -17.909,40 0,22.091 0,0 Z"
             style="fill:none;stroke:#000000;stroke-width:20;stroke-linecap:round;stroke-linejoin:round;stroke-miterlimit:10;stroke-dasharray:none;stroke-opacity:1"
             id="path1447" /></g><g
           id="g1449"
           transform="translate(239.4941,172.376)"><path
             d="M 0,0 33.605,-38.183"
             style="fill:none;stroke:#000000;stroke-width:20;stroke-linecap:round;stroke-linejoin:round;stroke-miterlimit:10;stroke-dasharray:none;stroke-opacity:1"
             id="path1451" /></g><g
           id="g1453"
           transform="translate(232.8472,214.1934)"><path
             d="M 0,0 V -80"
             style="fill:none;stroke:#000000;stroke-width:20;stroke-linecap:round;stroke-linejoin:round;stroke-miterlimit:10;stroke-dasharray:none;stroke-opacity:1"
             id="path1455" /></g><g
           id="g1457"
           transform="translate(273.0996,193.4023)"><path
             d="m 0,0 c 0,-11.482 -10.068,-20.791 -21.968,-20.791 -5.901,0 -18.111,-0.092 -18.111,-0.092 0,0 -0.094,15.095 -0.094,20.883 0,4.754 -0.054,20.791 -0.054,20.791 h 18.259 C -10.068,20.791 0,11.482 0,0 Z"
             style="fill:none;stroke:#000000;stroke-width:20;stroke-linecap:round;stroke-linejoin:round;stroke-miterlimit:10;stroke-dasharray:none;stroke-opacity:1"
             id="path1459" /></g><g
           id="g1461"
           transform="translate(311.5376,214.1934)"><path
             d="M 0,0 V -80"
             style="fill:none;stroke:#000000;stroke-width:20;stroke-linecap:round;stroke-linejoin:round;stroke-miterlimit:10;stroke-dasharray:none;stroke-opacity:1"
             id="path1463" /></g><g
           id="g1465"
           transform="translate(348.9028,213.1841)"><path
             d="M 0,0 -34.805,-37.203 2.84,-78.991"
             style="fill:none;stroke:#000000;stroke-width:20;stroke-linecap:round;stroke-linejoin:round;stroke-miterlimit:10;stroke-dasharray:none;stroke-opacity:1"
             id="path1467" /></g><g
           id="g1469"
           transform="translate(415.5088,213.4268)"><path
             d="M 0,0 V -78.467"
             style="fill:none;stroke:#000000;stroke-width:20;stroke-linecap:round;stroke-linejoin:round;stroke-miterlimit:10;stroke-dasharray:none;stroke-opacity:1"
             id="path1471" /></g><g
           id="g1473"
           transform="translate(451.5464,134.1934)"><path
             d="M 0,0 V 79.851 L 48.588,1.675 c 0.901,-1.446 1.866,-0.738 1.866,1.021 V 80"
             style="fill:none;stroke:#000000;stroke-width:20;stroke-linecap:round;stroke-linejoin:round;stroke-miterlimit:10;stroke-dasharray:none;stroke-opacity:1"
             id="path1475" /></g><g
           id="g1477"
           transform="translate(80.6733,48.564)"><path
             d="M 0,0 33.943,-38.566"
             style="fill:none;stroke:#000000;stroke-width:20;stroke-linecap:round;stroke-linejoin:round;stroke-miterlimit:10;stroke-dasharray:none;stroke-opacity:1"
             id="path1479" /></g><g
           id="g1481"
           transform="translate(73.9595,90.8018)"><path
             d="M 0,0 V -80.804"
             style="fill:none;stroke:#000000;stroke-width:20;stroke-linecap:round;stroke-linejoin:round;stroke-miterlimit:10;stroke-dasharray:none;stroke-opacity:1"
             id="path1483" /></g><g
           id="g1485"
           transform="translate(114.6162,69.8018)"><path
             d="m 0,0 c 0,-11.598 -10.169,-21 -22.188,-21 -5.961,0 -18.293,-0.093 -18.293,-0.093 0,0 -0.096,15.247 -0.096,21.093 0,4.801 -0.053,21 -0.053,21 h 18.442 C -10.169,21 0,11.598 0,0 Z"
             style="fill:none;stroke:#000000;stroke-width:20;stroke-linecap:round;stroke-linejoin:round;stroke-miterlimit:10;stroke-dasharray:none;stroke-opacity:1"
             id="path1487" /></g><g
           id="g1489"
           transform="translate(282.5933,48.564)"><path
             d="M 0,0 33.943,-38.566"
             style="fill:none;stroke:#000000;stroke-width:20;stroke-linecap:round;stroke-linejoin:round;stroke-miterlimit:10;stroke-dasharray:none;stroke-opacity:1"
             id="path1491" /></g><g
           id="g1493"
           transform="translate(275.8794,90.8018)"><path
             d="M 0,0 V -80.804"
             style="fill:none;stroke:#000000;stroke-width:20;stroke-linecap:round;stroke-linejoin:round;stroke-miterlimit:10;stroke-dasharray:none;stroke-opacity:1"
             id="path1495" /></g><g
           id="g1497"
           transform="translate(316.5361,69.8018)"><path
             d="m 0,0 c 0,-11.598 -10.169,-21 -22.188,-21 -5.961,0 -18.293,-0.093 -18.293,-0.093 0,0 -0.096,15.247 -0.096,21.093 0,4.801 -0.053,21 -0.053,21 h 18.442 C -10.169,21 0,11.598 0,0 Z"
             style="fill:none;stroke:#000000;stroke-width:20;stroke-linecap:round;stroke-linejoin:round;stroke-miterlimit:10;stroke-dasharray:none;stroke-opacity:1"
             id="path1499" /></g><g
           id="g1501"
           transform="translate(10,48.564)"><path
             d="M 0,0 V -38.566"
             style="fill:none;stroke:#000000;stroke-width:20;stroke-linecap:round;stroke-linejoin:round;stroke-miterlimit:10;stroke-dasharray:none;stroke-opacity:1"
             id="path1503" /></g><g
           id="g1505"
           transform="translate(50.6982,67.9985)"><path
             d="m 0,0 c 0,-12.593 -10.656,-22.803 -23.249,-22.803 -6.246,0 -17.293,-0.1 -17.293,-0.1 0,0 -0.1,16.555 -0.1,22.903 0,5.214 -0.056,22.803 -0.056,22.803 h 17.449 C -10.656,22.803 0,12.594 0,0 Z"
             style="fill:none;stroke:#000000;stroke-width:20;stroke-linecap:round;stroke-linejoin:round;stroke-miterlimit:10;stroke-dasharray:none;stroke-opacity:1"
             id="path1507" /></g><g
           id="g1509"
           transform="translate(182.8154,32.4482)"><path
             d="m 0,0 c 0,-12.399 -10.051,-22.45 -22.45,-22.45 -12.399,0 -22.45,10.051 -22.45,22.45 v 35.903 c 0,12.399 10.051,22.451 22.45,22.451 C -10.051,58.354 0,48.302 0,35.903 Z"
             style="fill:none;stroke:#000000;stroke-width:20;stroke-linecap:round;stroke-linejoin:round;stroke-miterlimit:10;stroke-dasharray:none;stroke-opacity:1"
             id="path1511" /></g><g
           id="g1513"
           transform="translate(432.8779,83.8433)"><path
             d="m 0,0 c -4.407,3.02 -16.282,9.754 -29.776,5.689 -15.7,-4.73 -17.895,-22.832 -6.537,-30.237 0,0 11.145,-4.973 23.507,-9.533 29.757,-10.976 16.939,-39.764 -7.016,-39.764 -8.305,0 -15.686,2.518 -21.464,6.299"
             style="fill:none;stroke:#000000;stroke-width:20;stroke-linecap:round;stroke-linejoin:round;stroke-miterlimit:10;stroke-dasharray:none;stroke-opacity:1"
             id="path1515" /></g><g
           id="g1517"
           transform="translate(497.5083,83.8433)"><path
             d="m 0,0 c -4.407,3.02 -16.282,9.754 -29.776,5.689 -15.7,-4.73 -17.895,-22.832 -6.537,-30.237 0,0 11.145,-4.973 23.507,-9.533 29.757,-10.976 16.939,-39.764 -7.017,-39.764 -8.304,0 -15.686,2.518 -21.464,6.299"
             style="fill:none;stroke:#000000;stroke-width:20;stroke-linecap:round;stroke-linejoin:round;stroke-miterlimit:10;stroke-dasharray:none;stroke-opacity:1"
             id="path1519" /></g><g
           id="g1521"
           transform="translate(251.7129,74.7383)"><path
             d="m 0,0 c -2.751,9.288 -11.349,16.063 -21.528,16.063 -12.399,0 -22.451,-10.051 -22.451,-22.45 V -42.29 c 0,-12.399 10.052,-22.45 22.451,-22.45 10.162,0 18.747,6.752 21.514,16.014 v 19.741 h -9.351"
             style="fill:none;stroke:#000000;stroke-width:20;stroke-linecap:round;stroke-linejoin:round;stroke-miterlimit:10;stroke-dasharray:none;stroke-opacity:1"
             id="path1523" /></g><g
           id="g1525"
           transform="translate(368.2847,89.9888)"><path
             d="M 0,0 H -28.254 V -79.178 H 0"
             style="fill:none;stroke:#000000;stroke-width:20;stroke-linecap:round;stroke-linejoin:round;stroke-miterlimit:10;stroke-dasharray:none;stroke-opacity:1"
             id="path1527" /></g><g
           id="g1529"
           transform="translate(366.2012,50.3999)"><path
             d="M 0,0 H -26.17"
             style="fill:none;stroke:#000000;stroke-width:20;stroke-linecap:round;stroke-linejoin:round;stroke-miterlimit:10;stroke-dasharray:none;stroke-opacity:1"
             id="path1531" /></g><g
           id="g1533"
           transform="translate(385.0298,255.998)"><path
             d="M 0,0 H 56.449 L -39.232,137.061 -66.065,101.455 H -89.941 L -134.914,0 H -90"
             style="fill:none;stroke:#000000;stroke-width:20;stroke-linecap:round;stroke-linejoin:round;stroke-miterlimit:10;stroke-dasharray:none;stroke-opacity:1"
             id="path1535" /></g><g
           id="g1537"
           transform="translate(99.2632,429.1963)"><path
             d="M 0,0 180.054,-103.237"
             style="fill:none;stroke:#000000;stroke-width:20;stroke-linecap:round;stroke-linejoin:round;stroke-miterlimit:10;stroke-dasharray:none;stroke-opacity:1"
             id="path1539" /></g><g
           id="g1541"
           transform="translate(242.9316,447.6328)"><path
             d="M 0,0 V -100.812"
             style="fill:none;stroke:#000000;stroke-width:20;stroke-linecap:round;stroke-linejoin:round;stroke-miterlimit:10;stroke-dasharray:none;stroke-opacity:1"
             id="path1543" /></g><g
           id="g1545"
           transform="translate(123.355,416.2847)"><path
             d="M 0,0 45.245,47.286 H 93.006"
             style="fill:none;stroke:#000000;stroke-width:20;stroke-linecap:round;stroke-linejoin:round;stroke-miterlimit:10;stroke-dasharray:none;stroke-opacity:1"
             id="path1547" /></g><g
           id="g1549"
           transform="translate(204.9233,459.0049)"><path
             d="M 0,0 -47.893,-62.93 5.971,-89.758 37.567,-20.701"
             style="fill:none;stroke:#000000;stroke-width:20;stroke-linecap:round;stroke-linejoin:round;stroke-miterlimit:10;stroke-dasharray:none;stroke-opacity:1"
             id="path1551" /></g><g
           id="g1553"
           transform="translate(157.0303,396.0747)"><path
             d="m 0,0 -68.532,-109.627 c -5.855,-9.366 -3.009,-21.706 6.357,-27.56 3.297,-2.062 6.962,-3.044 10.583,-3.044 6.666,0 13.183,3.332 16.978,9.401 l 52.197,83.496 6.41,-27.394 -12.895,-39.105 c -3.459,-10.49 2.241,-21.798 12.731,-25.257 2.08,-0.686 4.191,-1.012 6.267,-1.012 8.397,0.001 16.217,5.332 18.99,13.743 l 14.657,44.447 c 1.152,3.495 1.318,7.238 0.48,10.821 l -10.359,44.263"
             style="fill:none;stroke:#000000;stroke-width:20;stroke-linecap:round;stroke-linejoin:round;stroke-miterlimit:10;stroke-dasharray:none;stroke-opacity:1"
             id="path1555" /></g><g
           id="g1557"
           transform="translate(267.5317,475.6035)"><path
             d="m 0,0 c 0,14.58 -11.819,26.398 -26.398,26.398 -14.58,0 -26.398,-11.818 -26.398,-26.398 0,-14.58 11.818,-26.398 26.398,-26.398 C -11.819,-26.398 0,-14.58 0,0 Z"
             style="fill:none;stroke:#000000;stroke-width:20;stroke-linecap:round;stroke-linejoin:round;stroke-miterlimit:10;stroke-dasharray:none;stroke-opacity:1"
             id="path1559" /></g><g
           id="g1561"
           transform="translate(340.0298,255.998)"><path
             d="M 0,0 V 0"
             style="fill:none;stroke:#000000;stroke-width:20;stroke-linecap:round;stroke-linejoin:round;stroke-miterlimit:10;stroke-dasharray:none;stroke-opacity:1"
             id="path1563" /></g></g></g></g></svg>
